<svg xmlns="http://www.w3.org/2000/svg" xmlns:xlink="http://www.w3.org/1999/xlink" width="500" zoomAndPan="magnify" viewBox="0 0 375 374.999991" height="500" preserveAspectRatio="xMidYMid meet" version="1.0"><defs><g/><clipPath id="1ee2268d5d"><path d="M 115 101.710938 L 263.917969 101.710938 L 263.917969 200 L 115 200 Z M 115 101.710938 " clip-rule="nonzero"/></clipPath><clipPath id="152012a2ab"><path d="M 110.917969 196 L 230 196 L 230 216.460938 L 110.917969 216.460938 Z M 110.917969 196 " clip-rule="nonzero"/></clipPath><clipPath id="4f836a9ff0"><path d="M 153 215 L 157 215 L 157 216.460938 L 153 216.460938 Z M 153 215 " clip-rule="nonzero"/></clipPath></defs><rect x="-37.5" width="450" fill="#ffffff" y="-37.499999" height="449.999989" fill-opacity="1"/><rect x="-37.5" width="450" fill="#f1caa1" y="-37.499999" height="449.999989" fill-opacity="1"/><g fill="#763c00" fill-opacity="1"><g transform="translate(65.651612, 262.165017)"><g><path d="M 16.96875 7.6875 C 15.945312 7.6875 15.210938 7.625 14.765625 7.5 C 14.316406 7.375 13.960938 7.085938 13.703125 6.640625 C 13.546875 6.378906 13.445312 6.097656 13.40625 5.796875 C 13.375 5.492188 13.359375 4.875 13.359375 3.9375 L 13.359375 0 L 9.953125 0 C 8.222656 0 6.785156 -0.195312 5.640625 -0.59375 C 4.503906 -1 3.613281 -1.710938 2.96875 -2.734375 C 2.332031 -3.765625 1.882812 -5.175781 1.625 -6.96875 C 1.375 -8.757812 1.25 -11.035156 1.25 -13.796875 L 1.25 -19.5625 C 1.25 -21.90625 1.390625 -23.878906 1.671875 -25.484375 C 1.960938 -27.085938 2.445312 -28.375 3.125 -29.34375 C 3.800781 -30.320312 4.695312 -31.019531 5.8125 -31.4375 C 6.9375 -31.851562 8.316406 -32.0625 9.953125 -32.0625 L 13.609375 -32.0625 C 15.523438 -32.0625 17.066406 -31.78125 18.234375 -31.21875 C 19.410156 -30.664062 20.269531 -29.78125 20.8125 -28.5625 C 21.070312 -28.007812 21.28125 -27.453125 21.4375 -26.890625 C 21.601562 -26.335938 21.734375 -25.695312 21.828125 -24.96875 C 21.921875 -24.25 21.988281 -23.414062 22.03125 -22.46875 C 22.082031 -21.53125 22.109375 -20.382812 22.109375 -19.03125 L 22.109375 -11.4375 C 22.109375 -8.457031 21.8125 -6.109375 21.21875 -4.390625 C 20.632812 -2.679688 19.71875 -1.457031 18.46875 -0.71875 L 18.46875 1.109375 C 18.46875 2.035156 18.929688 2.5 19.859375 2.5 L 22.109375 2.5 L 22.109375 7.6875 Z M 13.515625 -22.890625 C 13.515625 -24.585938 12.921875 -25.4375 11.734375 -25.4375 C 11.148438 -25.4375 10.691406 -25.203125 10.359375 -24.734375 C 10.023438 -24.265625 9.859375 -23.648438 9.859375 -22.890625 L 9.859375 -9.09375 C 9.859375 -8.289062 10.023438 -7.660156 10.359375 -7.203125 C 10.691406 -6.753906 11.148438 -6.53125 11.734375 -6.53125 C 12.921875 -6.53125 13.515625 -7.382812 13.515625 -9.09375 Z M 13.515625 -22.890625 "/></g></g></g><g fill="#763c00" fill-opacity="1"><g transform="translate(91.994903, 262.165017)"><g><path d="M 10.1875 0 C 8.070312 0 6.476562 -0.0859375 5.40625 -0.265625 C 4.332031 -0.441406 3.539062 -0.753906 3.03125 -1.203125 C 2.519531 -1.648438 2.140625 -2.296875 1.890625 -3.140625 C 1.648438 -3.992188 1.53125 -5.125 1.53125 -6.53125 L 1.53125 -32.0625 L 10.140625 -32.0625 L 10.140625 -9.65625 C 10.140625 -7.707031 10.734375 -6.734375 11.921875 -6.734375 C 13.140625 -6.734375 13.75 -7.707031 13.75 -9.65625 L 13.75 -32.0625 L 22.359375 -32.0625 L 22.359375 -6.53125 C 22.359375 -5.125 22.238281 -3.992188 22 -3.140625 C 21.757812 -2.296875 21.378906 -1.648438 20.859375 -1.203125 C 20.347656 -0.753906 19.546875 -0.441406 18.453125 -0.265625 C 17.367188 -0.0859375 15.785156 0 13.703125 0 Z M 10.1875 0 "/></g></g></g><g fill="#763c00" fill-opacity="1"><g transform="translate(118.915033, 262.165017)"><g><path d="M 1.53125 -25.53125 C 1.53125 -26.9375 1.648438 -28.0625 1.890625 -28.90625 C 2.140625 -29.757812 2.519531 -30.410156 3.03125 -30.859375 C 3.539062 -31.316406 4.332031 -31.628906 5.40625 -31.796875 C 6.476562 -31.972656 8.070312 -32.0625 10.1875 -32.0625 L 13.703125 -32.0625 C 15.816406 -32.0625 17.410156 -31.972656 18.484375 -31.796875 C 19.554688 -31.628906 20.347656 -31.316406 20.859375 -30.859375 C 21.378906 -30.410156 21.757812 -29.757812 22 -28.90625 C 22.238281 -28.0625 22.359375 -26.9375 22.359375 -25.53125 L 22.359375 0 L 13.75 0 L 13.75 -6.78125 L 10.140625 -6.78125 L 10.140625 0 L 1.53125 0 Z M 13.75 -13.890625 L 13.75 -22.359375 C 13.75 -24.347656 13.140625 -25.34375 11.921875 -25.34375 C 10.734375 -25.34375 10.140625 -24.347656 10.140625 -22.359375 L 10.140625 -13.890625 Z M 13.75 -13.890625 "/></g></g></g><g fill="#763c00" fill-opacity="1"><g transform="translate(145.883239, 262.165017)"><g><path d="M 1.53125 -32.0625 L 14.65625 -32.0625 C 15.75 -32.0625 16.613281 -32.050781 17.25 -32.03125 C 17.894531 -32.019531 18.410156 -31.988281 18.796875 -31.9375 C 19.179688 -31.894531 19.484375 -31.828125 19.703125 -31.734375 C 19.929688 -31.640625 20.175781 -31.507812 20.4375 -31.34375 C 21.71875 -30.507812 22.359375 -28.679688 22.359375 -25.859375 L 22.359375 -23.796875 C 22.359375 -22.992188 22.347656 -22.320312 22.328125 -21.78125 C 22.316406 -21.238281 22.273438 -20.773438 22.203125 -20.390625 C 22.140625 -20.003906 22.050781 -19.664062 21.9375 -19.375 C 21.832031 -19.082031 21.679688 -18.796875 21.484375 -18.515625 C 21.097656 -17.867188 20.625 -17.394531 20.0625 -17.09375 C 19.507812 -16.789062 18.703125 -16.570312 17.640625 -16.4375 C 18.609375 -16.15625 19.394531 -15.859375 20 -15.546875 C 20.601562 -15.242188 21.082031 -14.859375 21.4375 -14.390625 C 21.789062 -13.929688 22.03125 -13.378906 22.15625 -12.734375 C 22.289062 -12.097656 22.359375 -11.300781 22.359375 -10.34375 L 22.359375 -5.390625 C 22.359375 -3.429688 22.582031 -1.632812 23.03125 0 L 14.421875 0 C 14.160156 -0.832031 13.984375 -1.632812 13.890625 -2.40625 C 13.796875 -3.175781 13.75 -4.171875 13.75 -5.390625 L 13.75 -9.65625 C 13.75 -10.6875 13.554688 -11.425781 13.171875 -11.875 C 12.785156 -12.320312 12.144531 -12.546875 11.25 -12.546875 L 10.140625 -12.546875 L 10.140625 0 L 1.53125 0 Z M 11.34375 -19.515625 C 12.34375 -19.515625 13 -19.691406 13.3125 -20.046875 C 13.632812 -20.398438 13.796875 -21.140625 13.796875 -22.265625 C 13.796875 -23.316406 13.617188 -24.050781 13.265625 -24.46875 C 12.910156 -24.882812 12.269531 -25.09375 11.34375 -25.09375 L 10.140625 -25.09375 L 10.140625 -19.515625 Z M 11.34375 -19.515625 "/></g></g></g><g fill="#763c00" fill-opacity="1"><g transform="translate(172.803369, 262.165017)"><g><path d="M 1.53125 -32.0625 L 14.65625 -32.0625 C 15.75 -32.0625 16.613281 -32.050781 17.25 -32.03125 C 17.894531 -32.019531 18.410156 -31.988281 18.796875 -31.9375 C 19.179688 -31.894531 19.484375 -31.828125 19.703125 -31.734375 C 19.929688 -31.640625 20.175781 -31.507812 20.4375 -31.34375 C 21.71875 -30.507812 22.359375 -28.679688 22.359375 -25.859375 L 22.359375 -23.796875 C 22.359375 -22.992188 22.347656 -22.320312 22.328125 -21.78125 C 22.316406 -21.238281 22.273438 -20.773438 22.203125 -20.390625 C 22.140625 -20.003906 22.050781 -19.664062 21.9375 -19.375 C 21.832031 -19.082031 21.679688 -18.796875 21.484375 -18.515625 C 21.097656 -17.867188 20.625 -17.394531 20.0625 -17.09375 C 19.507812 -16.789062 18.703125 -16.570312 17.640625 -16.4375 C 18.609375 -16.15625 19.394531 -15.859375 20 -15.546875 C 20.601562 -15.242188 21.082031 -14.859375 21.4375 -14.390625 C 21.789062 -13.929688 22.03125 -13.378906 22.15625 -12.734375 C 22.289062 -12.097656 22.359375 -11.300781 22.359375 -10.34375 L 22.359375 -5.390625 C 22.359375 -3.429688 22.582031 -1.632812 23.03125 0 L 14.421875 0 C 14.160156 -0.832031 13.984375 -1.632812 13.890625 -2.40625 C 13.796875 -3.175781 13.75 -4.171875 13.75 -5.390625 L 13.75 -9.65625 C 13.75 -10.6875 13.554688 -11.425781 13.171875 -11.875 C 12.785156 -12.320312 12.144531 -12.546875 11.25 -12.546875 L 10.140625 -12.546875 L 10.140625 0 L 1.53125 0 Z M 11.34375 -19.515625 C 12.34375 -19.515625 13 -19.691406 13.3125 -20.046875 C 13.632812 -20.398438 13.796875 -21.140625 13.796875 -22.265625 C 13.796875 -23.316406 13.617188 -24.050781 13.265625 -24.46875 C 12.910156 -24.882812 12.269531 -25.09375 11.34375 -25.09375 L 10.140625 -25.09375 L 10.140625 -19.515625 Z M 11.34375 -19.515625 "/></g></g></g><g fill="#763c00" fill-opacity="1"><g transform="translate(199.723499, 262.165017)"><g><path d="M 6.96875 -8.3125 C 4.757812 -9.757812 3.09375 -11.765625 1.96875 -14.328125 C 1.75 -14.867188 1.566406 -15.351562 1.421875 -15.78125 C 1.273438 -16.21875 1.171875 -16.691406 1.109375 -17.203125 C 1.046875 -17.722656 0.992188 -18.328125 0.953125 -19.015625 C 0.921875 -19.703125 0.90625 -20.578125 0.90625 -21.640625 L 0.90625 -32.0625 L 9.515625 -32.0625 L 9.515625 -21.484375 C 9.515625 -20.335938 9.53125 -19.394531 9.5625 -18.65625 C 9.59375 -17.914062 9.664062 -17.296875 9.78125 -16.796875 C 9.894531 -16.304688 10.070312 -15.875 10.3125 -15.5 C 10.550781 -15.132812 10.863281 -14.726562 11.25 -14.28125 C 11.632812 -14.726562 11.945312 -15.132812 12.1875 -15.5 C 12.425781 -15.875 12.601562 -16.304688 12.71875 -16.796875 C 12.832031 -17.296875 12.90625 -17.914062 12.9375 -18.65625 C 12.96875 -19.394531 12.984375 -20.335938 12.984375 -21.484375 L 12.984375 -32.0625 L 21.59375 -32.0625 L 21.59375 -21.640625 C 21.59375 -20.578125 21.570312 -19.703125 21.53125 -19.015625 C 21.5 -18.328125 21.453125 -17.722656 21.390625 -17.203125 C 21.328125 -16.691406 21.222656 -16.21875 21.078125 -15.78125 C 20.929688 -15.351562 20.75 -14.867188 20.53125 -14.328125 C 19.988281 -13.078125 19.304688 -11.945312 18.484375 -10.9375 C 17.671875 -9.925781 16.703125 -9.050781 15.578125 -8.3125 L 15.578125 0 L 6.96875 0 Z M 6.96875 -8.3125 "/></g></g></g><g fill="#763c00" fill-opacity="1"><g transform="translate(225.24959, 262.165017)"><g><path d="M 1.53125 -23.9375 C 1.53125 -25.863281 1.488281 -27.441406 1.40625 -28.671875 C 1.332031 -29.910156 1.21875 -31.039062 1.0625 -32.0625 L 10.90625 -32.0625 C 10.65625 -30.78125 10.460938 -29.503906 10.328125 -28.234375 C 10.203125 -26.972656 10.140625 -25.625 10.140625 -24.1875 L 10.140625 -6.96875 L 15.90625 -7.3125 L 14.375 0 L 1.53125 0 Z M 1.53125 -23.9375 "/></g></g></g><g fill="#763c00" fill-opacity="1"><g transform="translate(243.901616, 262.165017)"><g><path d="M 1.53125 -32.0625 L 10.140625 -32.0625 L 10.140625 0 L 1.53125 0 Z M 1.53125 -32.0625 "/></g></g></g><g fill="#763c00" fill-opacity="1"><g transform="translate(258.611874, 262.165017)"><g><path d="M 1.59375 -24.765625 C 1.59375 -25.535156 1.582031 -26.210938 1.5625 -26.796875 C 1.539062 -27.390625 1.5 -27.96875 1.4375 -28.53125 C 1.375 -29.09375 1.285156 -29.65625 1.171875 -30.21875 C 1.066406 -30.78125 0.929688 -31.394531 0.765625 -32.0625 L 9.46875 -32.0625 C 9.59375 -31.582031 9.703125 -31.164062 9.796875 -30.8125 C 9.898438 -30.46875 9.972656 -30.140625 10.015625 -29.828125 C 10.066406 -29.523438 10.113281 -29.222656 10.15625 -28.921875 C 10.207031 -28.617188 10.25 -28.257812 10.28125 -27.84375 C 10.507812 -28.675781 10.765625 -29.363281 11.046875 -29.90625 C 11.335938 -30.445312 11.695312 -30.878906 12.125 -31.203125 C 12.5625 -31.523438 13.109375 -31.75 13.765625 -31.875 C 14.429688 -32 15.226562 -32.0625 16.15625 -32.0625 C 16.988281 -32.0625 17.691406 -32.03125 18.265625 -31.96875 C 18.847656 -31.90625 19.347656 -31.773438 19.765625 -31.578125 C 20.179688 -31.390625 20.523438 -31.144531 20.796875 -30.84375 C 21.066406 -30.539062 21.332031 -30.148438 21.59375 -29.671875 C 21.75 -29.347656 21.875 -29.066406 21.96875 -28.828125 C 22.0625 -28.585938 22.132812 -28.21875 22.1875 -27.71875 C 22.238281 -27.21875 22.265625 -26.503906 22.265625 -25.578125 C 22.265625 -24.648438 22.265625 -23.335938 22.265625 -21.640625 L 22.265625 0 L 13.65625 0 L 13.65625 -22.15625 C 13.65625 -23.863281 13.078125 -24.71875 11.921875 -24.71875 C 10.765625 -24.71875 10.1875 -23.832031 10.1875 -22.0625 L 10.1875 0 L 1.59375 0 Z M 1.59375 -24.765625 "/></g></g></g><g fill="#763c00" fill-opacity="1"><g transform="translate(285.435862, 262.165017)"><g><path d="M 1.53125 -32.0625 L 10.140625 -32.0625 L 10.140625 -19.515625 L 11.390625 -19.515625 C 11.867188 -19.515625 12.257812 -19.578125 12.5625 -19.703125 C 12.875 -19.835938 13.117188 -20.070312 13.296875 -20.40625 C 13.472656 -20.738281 13.59375 -21.207031 13.65625 -21.8125 C 13.71875 -22.425781 13.75 -23.21875 13.75 -24.1875 L 13.75 -27.890625 C 13.75 -28.816406 13.804688 -29.578125 13.921875 -30.171875 C 14.035156 -30.765625 14.21875 -31.394531 14.46875 -32.0625 L 23.03125 -32.0625 C 22.863281 -31.675781 22.738281 -31.320312 22.65625 -31 C 22.582031 -30.6875 22.519531 -30.34375 22.46875 -29.96875 C 22.425781 -29.601562 22.394531 -29.1875 22.375 -28.71875 C 22.363281 -28.257812 22.359375 -27.675781 22.359375 -26.96875 L 22.359375 -23.171875 C 22.359375 -22.429688 22.34375 -21.8125 22.3125 -21.3125 C 22.28125 -20.820312 22.222656 -20.390625 22.140625 -20.015625 C 22.054688 -19.648438 21.929688 -19.335938 21.765625 -19.078125 C 21.609375 -18.828125 21.40625 -18.554688 21.15625 -18.265625 C 20.925781 -18.015625 20.695312 -17.800781 20.46875 -17.625 C 20.25 -17.445312 19.988281 -17.289062 19.6875 -17.15625 C 19.382812 -17.03125 19.03125 -16.910156 18.625 -16.796875 C 18.226562 -16.691406 17.738281 -16.585938 17.15625 -16.484375 L 16.53125 -16.34375 L 17.546875 -16.203125 C 19.335938 -15.878906 20.585938 -15.285156 21.296875 -14.421875 C 22.003906 -13.554688 22.359375 -12.175781 22.359375 -10.28125 L 22.359375 -5.765625 C 22.359375 -4.992188 22.363281 -4.351562 22.375 -3.84375 C 22.394531 -3.332031 22.425781 -2.867188 22.46875 -2.453125 C 22.519531 -2.035156 22.582031 -1.640625 22.65625 -1.265625 C 22.738281 -0.898438 22.863281 -0.476562 23.03125 0 L 14.765625 0 C 14.535156 -0.382812 14.351562 -0.753906 14.21875 -1.109375 C 14.09375 -1.460938 13.988281 -1.835938 13.90625 -2.234375 C 13.832031 -2.640625 13.785156 -3.113281 13.765625 -3.65625 C 13.753906 -4.195312 13.75 -4.851562 13.75 -5.625 L 13.75 -8.5625 C 13.75 -10.03125 13.5625 -11.0625 13.1875 -11.65625 C 12.820312 -12.25 12.175781 -12.546875 11.25 -12.546875 L 10.140625 -12.546875 L 10.140625 0 L 1.53125 0 Z M 1.53125 -32.0625 "/></g></g></g><g fill="#ef8535" fill-opacity="1"><g transform="translate(110.266359, 294.223164)"><g><path d="M 3.671875 -9.828125 L 6.171875 -3.140625 L 6.203125 -3.140625 L 8.734375 -9.828125 L 11.65625 -9.828125 L 11.65625 -8.625 L 11.171875 -8.59375 C 10.878906 -8.5625 10.738281 -8.390625 10.75 -8.078125 L 11.109375 -1.296875 L 12.03125 -1.25 L 12.03125 0 L 8.46875 0 L 8.46875 -1.203125 L 9 -1.234375 C 9.269531 -1.253906 9.398438 -1.382812 9.390625 -1.625 L 9.109375 -6.84375 L 9.078125 -6.84375 L 6.796875 -0.953125 L 5.390625 -0.953125 L 3.140625 -6.78125 L 3.125 -6.78125 L 2.828125 -1.296875 L 3.78125 -1.25 L 3.78125 0 L 0.296875 0 L 0.296875 -1.203125 L 0.828125 -1.234375 C 1.054688 -1.253906 1.179688 -1.390625 1.203125 -1.640625 L 1.59375 -8.515625 L 0.6875 -8.578125 L 0.6875 -9.828125 Z M 3.671875 -9.828125 "/></g></g></g><g fill="#ef8535" fill-opacity="1"><g transform="translate(126.257133, 294.223164)"><g><path d="M 3.15625 -7.4375 L 3.15625 -1.234375 L 4 -1.1875 L 4 0 L 0.484375 0 L 0.484375 -1.125 L 0.96875 -1.171875 C 1.257812 -1.203125 1.40625 -1.359375 1.40625 -1.640625 L 1.40625 -5.75 C 1.40625 -5.914062 1.375 -6.023438 1.3125 -6.078125 C 1.257812 -6.140625 1.164062 -6.171875 1.03125 -6.171875 L 0.515625 -6.203125 L 0.515625 -7.4375 Z M 1.296875 -8.703125 C 1.085938 -8.910156 0.984375 -9.171875 0.984375 -9.484375 C 0.984375 -9.804688 1.085938 -10.070312 1.296875 -10.28125 C 1.503906 -10.488281 1.773438 -10.59375 2.109375 -10.59375 C 2.441406 -10.59375 2.710938 -10.488281 2.921875 -10.28125 C 3.140625 -10.070312 3.25 -9.804688 3.25 -9.484375 C 3.25 -9.171875 3.140625 -8.910156 2.921875 -8.703125 C 2.710938 -8.503906 2.441406 -8.40625 2.109375 -8.40625 C 1.773438 -8.40625 1.503906 -8.503906 1.296875 -8.703125 Z M 1.296875 -8.703125 "/></g></g></g><g fill="#ef8535" fill-opacity="1"><g transform="translate(134.297685, 294.223164)"><g><path d="M 0.40625 -6.25 L 0.40625 -7.4375 L 2.890625 -7.4375 L 2.890625 -6.46875 C 3.148438 -6.832031 3.488281 -7.117188 3.90625 -7.328125 C 4.332031 -7.546875 4.796875 -7.65625 5.296875 -7.65625 C 6.046875 -7.65625 6.625 -7.441406 7.03125 -7.015625 C 7.4375 -6.585938 7.640625 -5.941406 7.640625 -5.078125 L 7.640625 -1.234375 L 8.484375 -1.1875 L 8.484375 0 L 4.96875 0 L 4.96875 -1.125 L 5.453125 -1.171875 C 5.597656 -1.191406 5.707031 -1.234375 5.78125 -1.296875 C 5.851562 -1.359375 5.890625 -1.476562 5.890625 -1.65625 L 5.890625 -4.703125 C 5.890625 -5.242188 5.800781 -5.644531 5.625 -5.90625 C 5.457031 -6.164062 5.140625 -6.296875 4.671875 -6.296875 C 4.203125 -6.296875 3.828125 -6.144531 3.546875 -5.84375 C 3.273438 -5.550781 3.140625 -5.203125 3.140625 -4.796875 L 3.140625 -1.234375 L 3.984375 -1.1875 L 3.984375 0 L 0.46875 0 L 0.46875 -1.125 L 0.953125 -1.171875 C 1.109375 -1.191406 1.21875 -1.234375 1.28125 -1.296875 C 1.351562 -1.359375 1.390625 -1.476562 1.390625 -1.65625 L 1.390625 -5.75 C 1.390625 -6.039062 1.265625 -6.191406 1.015625 -6.203125 Z M 0.40625 -6.25 "/></g></g></g><g fill="#ef8535" fill-opacity="1"><g transform="translate(146.830547, 294.223164)"><g><path d="M 3.15625 -7.4375 L 3.15625 -1.234375 L 4 -1.1875 L 4 0 L 0.484375 0 L 0.484375 -1.125 L 0.96875 -1.171875 C 1.257812 -1.203125 1.40625 -1.359375 1.40625 -1.640625 L 1.40625 -5.75 C 1.40625 -5.914062 1.375 -6.023438 1.3125 -6.078125 C 1.257812 -6.140625 1.164062 -6.171875 1.03125 -6.171875 L 0.515625 -6.203125 L 0.515625 -7.4375 Z M 1.296875 -8.703125 C 1.085938 -8.910156 0.984375 -9.171875 0.984375 -9.484375 C 0.984375 -9.804688 1.085938 -10.070312 1.296875 -10.28125 C 1.503906 -10.488281 1.773438 -10.59375 2.109375 -10.59375 C 2.441406 -10.59375 2.710938 -10.488281 2.921875 -10.28125 C 3.140625 -10.070312 3.25 -9.804688 3.25 -9.484375 C 3.25 -9.171875 3.140625 -8.910156 2.921875 -8.703125 C 2.710938 -8.503906 2.441406 -8.40625 2.109375 -8.40625 C 1.773438 -8.40625 1.503906 -8.503906 1.296875 -8.703125 Z M 1.296875 -8.703125 "/></g></g></g><g fill="#ef8535" fill-opacity="1"><g transform="translate(154.8711, 294.223164)"><g><path d="M 0.40625 -6.25 L 0.40625 -7.4375 L 2.890625 -7.4375 L 2.890625 -6.46875 C 3.148438 -6.832031 3.488281 -7.117188 3.90625 -7.328125 C 4.332031 -7.546875 4.796875 -7.65625 5.296875 -7.65625 C 6.046875 -7.65625 6.625 -7.441406 7.03125 -7.015625 C 7.4375 -6.585938 7.640625 -5.941406 7.640625 -5.078125 L 7.640625 -1.234375 L 8.484375 -1.1875 L 8.484375 0 L 4.96875 0 L 4.96875 -1.125 L 5.453125 -1.171875 C 5.597656 -1.191406 5.707031 -1.234375 5.78125 -1.296875 C 5.851562 -1.359375 5.890625 -1.476562 5.890625 -1.65625 L 5.890625 -4.703125 C 5.890625 -5.242188 5.800781 -5.644531 5.625 -5.90625 C 5.457031 -6.164062 5.140625 -6.296875 4.671875 -6.296875 C 4.203125 -6.296875 3.828125 -6.144531 3.546875 -5.84375 C 3.273438 -5.550781 3.140625 -5.203125 3.140625 -4.796875 L 3.140625 -1.234375 L 3.984375 -1.1875 L 3.984375 0 L 0.46875 0 L 0.46875 -1.125 L 0.953125 -1.171875 C 1.109375 -1.191406 1.21875 -1.234375 1.28125 -1.296875 C 1.351562 -1.359375 1.390625 -1.476562 1.390625 -1.65625 L 1.390625 -5.75 C 1.390625 -6.039062 1.265625 -6.191406 1.015625 -6.203125 Z M 0.40625 -6.25 "/></g></g></g><g fill="#ef8535" fill-opacity="1"><g transform="translate(167.403959, 294.223164)"><g><path d="M 7.0625 -0.015625 C 6.976562 1.078125 6.664062 1.878906 6.125 2.390625 C 5.582031 2.898438 4.734375 3.15625 3.578125 3.15625 C 2.421875 3.15625 1.519531 2.992188 0.875 2.671875 L 0.875 0.625 L 2.28125 0.5 L 2.28125 1.21875 C 2.28125 1.476562 2.398438 1.65625 2.640625 1.75 C 2.890625 1.84375 3.234375 1.890625 3.671875 1.890625 C 4.296875 1.890625 4.734375 1.695312 4.984375 1.3125 C 5.242188 0.9375 5.375 0.40625 5.375 -0.28125 L 5.375 -1.09375 C 4.90625 -0.539062 4.253906 -0.265625 3.421875 -0.265625 C 2.898438 -0.265625 2.445312 -0.363281 2.0625 -0.5625 C 1.675781 -0.757812 1.375 -1.023438 1.15625 -1.359375 C 0.726562 -2.023438 0.515625 -2.8125 0.515625 -3.71875 C 0.515625 -5.007812 0.863281 -5.988281 1.5625 -6.65625 C 2.257812 -7.320312 3.191406 -7.65625 4.359375 -7.65625 C 5.328125 -7.65625 6.238281 -7.472656 7.09375 -7.109375 L 7.09375 -1.625 C 7.09375 -0.789062 7.082031 -0.253906 7.0625 -0.015625 Z M 5.375 -3.015625 L 5.375 -6.1875 C 5.03125 -6.3125 4.640625 -6.375 4.203125 -6.375 C 3.597656 -6.375 3.132812 -6.148438 2.8125 -5.703125 C 2.488281 -5.265625 2.328125 -4.664062 2.328125 -3.90625 C 2.328125 -2.34375 2.84375 -1.5625 3.875 -1.5625 C 4.300781 -1.5625 4.65625 -1.691406 4.9375 -1.953125 C 5.226562 -2.210938 5.375 -2.566406 5.375 -3.015625 Z M 5.375 -3.015625 "/></g></g></g><g fill="#ef8535" fill-opacity="1"><g transform="translate(179.109301, 294.223164)"><g><path d="M 6.4375 -8.265625 C 6.332031 -8.453125 5.929688 -8.546875 5.234375 -8.546875 C 4.316406 -8.546875 3.617188 -8.234375 3.140625 -7.609375 C 2.671875 -6.992188 2.4375 -6.097656 2.4375 -4.921875 C 2.4375 -2.484375 3.347656 -1.265625 5.171875 -1.265625 C 5.203125 -1.265625 5.332031 -1.265625 5.5625 -1.265625 C 5.789062 -1.265625 6.007812 -1.296875 6.21875 -1.359375 C 6.425781 -1.429688 6.550781 -1.5 6.59375 -1.5625 C 6.632812 -1.632812 6.65625 -1.742188 6.65625 -1.890625 L 6.65625 -3.078125 L 8.15625 -2.96875 L 8.15625 -0.40625 C 7.382812 -0.0078125 6.410156 0.1875 5.234375 0.1875 C 3.722656 0.1875 2.570312 -0.234375 1.78125 -1.078125 C 0.988281 -1.921875 0.59375 -3.179688 0.59375 -4.859375 C 0.59375 -5.785156 0.722656 -6.59375 0.984375 -7.28125 C 1.253906 -7.976562 1.613281 -8.515625 2.0625 -8.890625 C 2.957031 -9.628906 4.015625 -10 5.234375 -10 C 6.210938 -10 7.140625 -9.800781 8.015625 -9.40625 L 8.015625 -6.890625 L 6.5 -6.78125 L 6.5 -7.9375 C 6.5 -8.082031 6.476562 -8.191406 6.4375 -8.265625 Z M 6.4375 -8.265625 "/></g></g></g><g fill="#ef8535" fill-opacity="1"><g transform="translate(191.671726, 294.223164)"><g><path d="M 3.890625 -1.078125 C 4.960938 -1.078125 5.5 -1.945312 5.5 -3.6875 C 5.5 -4.5625 5.378906 -5.222656 5.140625 -5.671875 C 4.898438 -6.128906 4.492188 -6.359375 3.921875 -6.359375 C 3.359375 -6.359375 2.941406 -6.140625 2.671875 -5.703125 C 2.410156 -5.273438 2.28125 -4.6875 2.28125 -3.9375 C 2.28125 -2.539062 2.535156 -1.664062 3.046875 -1.3125 C 3.273438 -1.15625 3.554688 -1.078125 3.890625 -1.078125 Z M 0.484375 -3.71875 C 0.484375 -4.445312 0.59375 -5.082031 0.8125 -5.625 C 1.03125 -6.164062 1.320312 -6.578125 1.6875 -6.859375 C 2.382812 -7.390625 3.15625 -7.65625 4 -7.65625 C 4.59375 -7.65625 5.09375 -7.554688 5.5 -7.359375 C 5.914062 -7.171875 6.238281 -6.953125 6.46875 -6.703125 C 6.695312 -6.453125 6.890625 -6.085938 7.046875 -5.609375 C 7.210938 -5.128906 7.296875 -4.566406 7.296875 -3.921875 C 7.296875 -2.554688 6.96875 -1.523438 6.3125 -0.828125 C 5.65625 -0.128906 4.8125 0.21875 3.78125 0.21875 C 2.75 0.21875 1.941406 -0.113281 1.359375 -0.78125 C 0.773438 -1.445312 0.484375 -2.425781 0.484375 -3.71875 Z M 0.484375 -3.71875 "/></g></g></g><g fill="#ef8535" fill-opacity="1"><g transform="translate(203.140622, 294.223164)"><g><path d="M 0.40625 -6.234375 L 0.40625 -7.4375 L 2.890625 -7.4375 L 2.890625 -6.46875 C 3.441406 -7.257812 4.195312 -7.65625 5.15625 -7.65625 C 6.125 -7.65625 6.773438 -7.257812 7.109375 -6.46875 C 7.660156 -7.257812 8.410156 -7.65625 9.359375 -7.65625 C 10.066406 -7.65625 10.613281 -7.441406 11 -7.015625 C 11.382812 -6.585938 11.578125 -5.941406 11.578125 -5.078125 L 11.578125 -1.234375 L 12.421875 -1.1875 L 12.421875 0 L 8.890625 0 L 8.890625 -1.125 L 9.390625 -1.171875 C 9.535156 -1.191406 9.640625 -1.234375 9.703125 -1.296875 C 9.765625 -1.359375 9.800781 -1.472656 9.8125 -1.640625 L 9.8125 -4.703125 C 9.8125 -5.242188 9.75 -5.644531 9.625 -5.90625 C 9.5 -6.164062 9.207031 -6.296875 8.75 -6.296875 C 8.300781 -6.296875 7.957031 -6.15625 7.71875 -5.875 C 7.476562 -5.601562 7.359375 -5.238281 7.359375 -4.78125 L 7.359375 -1.234375 L 8.171875 -1.1875 L 8.171875 0 L 4.6875 0 L 4.6875 -1.125 L 5.171875 -1.171875 C 5.316406 -1.191406 5.425781 -1.234375 5.5 -1.296875 C 5.570312 -1.359375 5.609375 -1.476562 5.609375 -1.65625 L 5.609375 -4.703125 C 5.609375 -5.242188 5.546875 -5.644531 5.421875 -5.90625 C 5.296875 -6.164062 5.003906 -6.296875 4.546875 -6.296875 C 4.085938 -6.296875 3.738281 -6.148438 3.5 -5.859375 C 3.257812 -5.578125 3.140625 -5.222656 3.140625 -4.796875 L 3.140625 -1.234375 L 3.953125 -1.1875 L 3.953125 0 L 0.453125 0 L 0.453125 -1.125 L 0.953125 -1.171875 C 1.097656 -1.191406 1.203125 -1.234375 1.265625 -1.296875 C 1.335938 -1.359375 1.375 -1.476562 1.375 -1.65625 L 1.390625 -1.65625 L 1.390625 -5.734375 C 1.390625 -5.898438 1.363281 -6.015625 1.3125 -6.078125 C 1.257812 -6.140625 1.160156 -6.175781 1.015625 -6.1875 Z M 0.40625 -6.234375 "/></g></g></g><g fill="#ef8535" fill-opacity="1"><g transform="translate(219.604268, 294.223164)"><g><path d="M 1.3125 1.40625 L 1.3125 -5.75 C 1.3125 -5.914062 1.285156 -6.03125 1.234375 -6.09375 C 1.179688 -6.15625 1.085938 -6.1875 0.953125 -6.1875 L 0.328125 -6.234375 L 0.328125 -7.4375 L 2.828125 -7.4375 L 2.828125 -6.46875 C 2.984375 -6.769531 3.265625 -7.039062 3.671875 -7.28125 C 4.085938 -7.53125 4.582031 -7.65625 5.15625 -7.65625 C 6.9375 -7.65625 7.828125 -6.40625 7.828125 -3.90625 C 7.828125 -2.570312 7.535156 -1.550781 6.953125 -0.84375 C 6.378906 -0.132812 5.59375 0.21875 4.59375 0.21875 C 4 0.21875 3.472656 0.078125 3.015625 -0.203125 L 3.015625 1.828125 L 4.21875 1.890625 L 4.21875 3.0625 L 0.40625 3.0625 L 0.40625 1.9375 L 0.890625 1.890625 C 1.035156 1.867188 1.140625 1.828125 1.203125 1.765625 C 1.273438 1.703125 1.3125 1.582031 1.3125 1.40625 Z M 6 -3.75 C 6 -5.394531 5.503906 -6.21875 4.515625 -6.21875 C 4.097656 -6.21875 3.742188 -6.09375 3.453125 -5.84375 C 3.160156 -5.59375 3.015625 -5.296875 3.015625 -4.953125 L 3.015625 -1.546875 C 3.390625 -1.304688 3.84375 -1.1875 4.375 -1.1875 C 4.914062 -1.1875 5.320312 -1.429688 5.59375 -1.921875 C 5.863281 -2.410156 6 -3.019531 6 -3.75 Z M 6 -3.75 "/></g></g></g><g fill="#ef8535" fill-opacity="1"><g transform="translate(231.664257, 294.223164)"><g><path d="M 7.125 -7.140625 L 7.125 -1.640625 C 7.125 -1.484375 7.148438 -1.375 7.203125 -1.3125 C 7.253906 -1.257812 7.351562 -1.226562 7.5 -1.21875 L 7.96875 -1.1875 L 7.96875 0 L 5.609375 0 L 5.609375 -0.859375 L 5.578125 -0.875 C 5.078125 -0.164062 4.398438 0.1875 3.546875 0.1875 C 2.546875 0.1875 1.800781 -0.128906 1.3125 -0.765625 C 0.832031 -1.410156 0.59375 -2.289062 0.59375 -3.40625 C 0.59375 -4.738281 0.914062 -5.78125 1.5625 -6.53125 C 2.21875 -7.28125 3.195312 -7.65625 4.5 -7.65625 C 5.332031 -7.65625 6.207031 -7.484375 7.125 -7.140625 Z M 5.40625 -2.34375 L 5.40625 -6.171875 C 5.132812 -6.304688 4.753906 -6.375 4.265625 -6.375 C 3.609375 -6.375 3.128906 -6.109375 2.828125 -5.578125 C 2.535156 -5.046875 2.390625 -4.335938 2.390625 -3.453125 C 2.390625 -1.859375 2.90625 -1.0625 3.9375 -1.0625 C 4.363281 -1.0625 4.710938 -1.191406 4.984375 -1.453125 C 5.265625 -1.710938 5.40625 -2.007812 5.40625 -2.34375 Z M 5.40625 -2.34375 "/></g></g></g><g fill="#ef8535" fill-opacity="1"><g transform="translate(243.709472, 294.223164)"><g><path d="M 0.40625 -6.25 L 0.40625 -7.4375 L 2.890625 -7.4375 L 2.890625 -6.46875 C 3.148438 -6.832031 3.488281 -7.117188 3.90625 -7.328125 C 4.332031 -7.546875 4.796875 -7.65625 5.296875 -7.65625 C 6.046875 -7.65625 6.625 -7.441406 7.03125 -7.015625 C 7.4375 -6.585938 7.640625 -5.941406 7.640625 -5.078125 L 7.640625 -1.234375 L 8.484375 -1.1875 L 8.484375 0 L 4.96875 0 L 4.96875 -1.125 L 5.453125 -1.171875 C 5.597656 -1.191406 5.707031 -1.234375 5.78125 -1.296875 C 5.851562 -1.359375 5.890625 -1.476562 5.890625 -1.65625 L 5.890625 -4.703125 C 5.890625 -5.242188 5.800781 -5.644531 5.625 -5.90625 C 5.457031 -6.164062 5.140625 -6.296875 4.671875 -6.296875 C 4.203125 -6.296875 3.828125 -6.144531 3.546875 -5.84375 C 3.273438 -5.550781 3.140625 -5.203125 3.140625 -4.796875 L 3.140625 -1.234375 L 3.984375 -1.1875 L 3.984375 0 L 0.46875 0 L 0.46875 -1.125 L 0.953125 -1.171875 C 1.109375 -1.191406 1.21875 -1.234375 1.28125 -1.296875 C 1.351562 -1.359375 1.390625 -1.476562 1.390625 -1.65625 L 1.390625 -5.75 C 1.390625 -6.039062 1.265625 -6.191406 1.015625 -6.203125 Z M 0.40625 -6.25 "/></g></g></g><g fill="#ef8535" fill-opacity="1"><g transform="translate(256.242331, 294.223164)"><g><path d="M 5.921875 -0.28125 L 5.921875 -1.40625 C 5.378906 -0.632812 4.582031 -0.25 3.53125 -0.25 C 2 -0.25 1.234375 -1.101562 1.234375 -2.8125 L 1.234375 -5.78125 C 1.234375 -6.039062 1.113281 -6.175781 0.875 -6.1875 L 0.40625 -6.21875 L 0.40625 -7.4375 L 3 -7.4375 L 3 -3.1875 C 3 -2.664062 3.070312 -2.269531 3.21875 -2 C 3.363281 -1.738281 3.664062 -1.609375 4.125 -1.609375 C 4.59375 -1.609375 4.96875 -1.75 5.25 -2.03125 C 5.53125 -2.320312 5.671875 -2.671875 5.671875 -3.078125 L 5.671875 -5.75 C 5.671875 -5.914062 5.644531 -6.03125 5.59375 -6.09375 C 5.539062 -6.15625 5.445312 -6.1875 5.3125 -6.1875 L 4.828125 -6.21875 L 4.828125 -7.4375 L 7.4375 -7.4375 L 7.4375 -0.28125 C 7.4375 0.90625 7.144531 1.773438 6.5625 2.328125 C 5.988281 2.878906 5.117188 3.15625 3.953125 3.15625 C 2.785156 3.15625 1.878906 2.992188 1.234375 2.671875 L 1.234375 0.625 L 2.625 0.5 L 2.625 1.21875 C 2.625 1.476562 2.75 1.65625 3 1.75 C 3.25 1.84375 3.585938 1.890625 4.015625 1.890625 C 5.285156 1.890625 5.921875 1.164062 5.921875 -0.28125 Z M 5.921875 -0.28125 "/></g></g></g><path fill="#ef8535" d="M 142.402344 191.933594 C 141.53125 191.933594 140.832031 192.648438 140.832031 193.511719 C 140.832031 194.378906 141.535156 195.078125 142.402344 195.078125 C 143.269531 195.078125 143.984375 194.378906 143.984375 193.511719 C 143.984375 192.648438 143.269531 191.933594 142.402344 191.933594 Z M 142.402344 191.933594 " fill-opacity="1" fill-rule="evenodd"/><path fill="#ef8535" d="M 152.464844 183.179688 C 152.464844 184.042969 153.179688 184.742188 154.046875 184.742188 C 154.914062 184.742188 155.613281 184.042969 155.613281 183.179688 C 155.613281 182.3125 154.914062 181.617188 154.046875 181.617188 C 153.179688 181.613281 152.464844 182.3125 152.464844 183.179688 Z M 152.464844 183.179688 " fill-opacity="1" fill-rule="evenodd"/><path fill="#ef8535" d="M 157.867188 172.84375 C 157.867188 173.707031 158.570312 174.421875 159.4375 174.421875 C 160.304688 174.421875 161.019531 173.707031 161.019531 172.84375 C 161.019531 171.976562 160.304688 171.277344 159.4375 171.277344 C 158.570312 171.277344 157.867188 171.976562 157.867188 172.84375 Z M 157.867188 172.84375 " fill-opacity="1" fill-rule="evenodd"/><path fill="#ef8535" d="M 159.800781 162.507812 C 159.800781 163.386719 160.503906 164.085938 161.371094 164.085938 C 162.238281 164.085938 162.953125 163.386719 162.953125 162.507812 C 162.953125 161.640625 162.238281 160.941406 161.371094 160.941406 C 160.503906 160.941406 159.800781 161.640625 159.800781 162.507812 Z M 159.800781 162.507812 " fill-opacity="1" fill-rule="evenodd"/><path fill="#ef8535" d="M 153.347656 153.75 C 154.230469 153.75 154.929688 153.050781 154.929688 152.1875 C 154.929688 151.304688 154.230469 150.609375 153.347656 150.609375 C 152.480469 150.609375 151.777344 151.304688 151.777344 152.1875 C 151.777344 153.050781 152.480469 153.75 153.347656 153.75 Z M 153.347656 153.75 " fill-opacity="1" fill-rule="evenodd"/><g clip-path="url(#1ee2268d5d)"><path fill="#ef8535" d="M 158.15625 159.925781 C 158.902344 158.984375 160.074219 158.394531 161.371094 158.394531 C 163.652344 158.394531 165.496094 160.230469 165.496094 162.507812 C 165.496094 164.78125 163.652344 166.636719 161.371094 166.636719 C 160.074219 166.636719 158.902344 166.027344 158.15625 165.101562 L 138.246094 165.101562 C 136.8125 165.101562 135.65625 166.253906 135.65625 167.683594 C 135.65625 169.09375 136.8125 170.261719 138.246094 170.261719 L 156.222656 170.261719 C 156.984375 169.320312 158.140625 168.730469 159.4375 168.730469 C 161.71875 168.730469 163.578125 170.566406 163.578125 172.84375 C 163.578125 175.117188 161.71875 176.957031 159.4375 176.957031 C 158.140625 176.957031 156.984375 176.363281 156.222656 175.4375 L 156.132812 175.421875 L 128.53125 175.421875 C 127.101562 175.421875 125.945312 176.589844 125.945312 178.015625 C 125.945312 179.429688 127.101562 180.597656 128.53125 180.597656 L 150.820312 180.597656 C 151.582031 179.65625 152.738281 179.066406 154.046875 179.066406 C 156.332031 179.066406 158.171875 180.902344 158.171875 183.175781 C 158.171875 185.453125 156.332031 187.289062 154.046875 187.289062 C 152.738281 187.289062 151.582031 186.699219 150.820312 185.757812 L 117.691406 185.757812 C 116.277344 185.757812 115.105469 186.925781 115.105469 188.339844 C 115.105469 189.765625 116.277344 190.933594 117.691406 190.933594 L 139.1875 190.933594 C 139.949219 189.992188 141.105469 189.382812 142.402344 189.382812 C 144.683594 189.382812 146.542969 191.238281 146.542969 193.511719 C 146.542969 194.515625 146.175781 195.425781 145.582031 196.140625 L 202.640625 195.957031 L 204.148438 194.121094 L 204.105469 189.855469 C 205.246094 180.414062 203.84375 170.835938 200.039062 162.113281 L 218.261719 123.089844 L 251.039062 177.257812 C 248.863281 175.984375 246.152344 176.089844 244.066406 177.515625 C 239.941406 182.78125 233.363281 185.4375 224.351562 185.484375 L 222.601562 182.8125 L 213.464844 181.796875 L 221.382812 189.445312 C 234.703125 202.421875 246.867188 202.527344 257.90625 189.765625 C 257.875 190.433594 257.707031 191.101562 257.417969 191.707031 C 258.679688 191.296875 259.914062 190.8125 261.117188 190.25 C 262.214844 190.128906 263.125 189.324219 263.386719 188.246094 C 263.628906 187.167969 263.171875 186.046875 262.226562 185.453125 L 262.519531 173.632812 C 263.570312 173.039062 264.085938 171.824219 263.78125 170.65625 C 263.460938 169.488281 262.394531 168.699219 261.191406 168.714844 L 249.851562 149.136719 L 250.292969 148.875 L 233.425781 117.125 C 233.226562 116.882812 232.96875 116.703125 232.664062 116.640625 C 233.425781 115.835938 233.730469 114.683594 233.4375 113.605469 C 232.921875 112.574219 229.039062 109.324219 221.808594 103.832031 C 221.441406 102.664062 220.410156 101.828125 219.191406 101.722656 C 217.972656 101.601562 216.816406 102.238281 216.238281 103.316406 L 216.054688 106.03125 L 206.113281 118.523438 L 205.671875 118.128906 L 193.21875 134.078125 L 192.746094 137.554688 C 188.679688 139.785156 186.824219 142.199219 187.175781 144.765625 C 183.445312 144.21875 167.476562 144.113281 158.445312 144.429688 L 136.113281 144.429688 C 134.699219 144.429688 133.523438 145.597656 133.523438 147.011719 C 133.523438 148.4375 134.699219 149.589844 136.113281 149.589844 L 150.132812 149.589844 C 150.894531 148.664062 152.050781 148.058594 153.347656 148.058594 C 155.628906 148.058594 157.488281 149.910156 157.488281 152.1875 C 157.488281 154.449219 155.628906 156.300781 153.347656 156.300781 C 152.050781 156.300781 150.894531 155.691406 150.132812 154.765625 L 119.246094 154.765625 C 117.816406 154.765625 116.65625 155.921875 116.65625 157.347656 C 116.65625 158.773438 117.816406 159.925781 119.246094 159.925781 Z M 178.527344 149.589844 L 178.542969 147.558594 C 179.636719 147.511719 180.6875 147.511719 181.648438 147.570312 C 185.636719 147.800781 188.46875 148.90625 190.144531 150.882812 C 195.515625 157.269531 199.171875 164.933594 200.753906 173.132812 C 194.542969 172.464844 187.097656 171.613281 178.4375 170.597656 Z M 178.695312 174.34375 C 189.230469 175.253906 195.835938 176.015625 198.515625 176.636719 C 200.128906 177.136719 201.226562 178.640625 201.226562 180.324219 C 201.515625 183.953125 200.648438 185.757812 198.621094 185.710938 C 191.984375 184.042969 185.210938 182.207031 178.328125 180.21875 C 178.207031 178.261719 178.328125 176.289062 178.695312 174.34375 Z M 229.164062 119.3125 C 229.085938 119.128906 229.144531 118.949219 229.296875 118.84375 C 229.449219 118.734375 229.648438 118.75 229.785156 118.871094 L 247.246094 150.226562 L 248.132812 149.894531 L 257.980469 167.683594 C 256.152344 166.785156 254.203125 166.089844 252.210938 165.632812 Z M 261.070312 188.792969 C 260.355469 188.792969 259.777344 188.21875 259.777344 187.503906 C 259.777344 186.789062 260.355469 186.214844 261.070312 186.214844 C 261.785156 186.214844 262.363281 186.789062 262.363281 187.503906 C 262.363281 188.21875 261.785156 188.792969 261.070312 188.792969 Z M 256.761719 174.695312 L 254.34375 169.609375 C 257.644531 171.019531 259.320312 172.234375 259.394531 173.238281 L 259.394531 184.148438 C 259.335938 184.238281 258.496094 183.164062 256.898438 180.917969 L 256.914062 177.472656 C 257.296875 176.5625 257.234375 175.542969 256.761719 174.695312 Z M 261.222656 172.75 C 260.507812 172.75 259.929688 172.160156 259.929688 171.445312 C 259.929688 170.734375 260.507812 170.15625 261.222656 170.15625 C 261.9375 170.15625 262.53125 170.734375 262.53125 171.445312 C 262.53125 172.160156 261.9375 172.75 261.222656 172.75 Z M 208.335938 120.390625 L 207.574219 119.628906 L 215.949219 108.839844 L 215.949219 113.894531 L 212.964844 114.757812 Z M 219.964844 104.421875 C 219.964844 105.0625 219.449219 105.578125 218.808594 105.578125 C 218.171875 105.578125 217.652344 105.0625 217.652344 104.421875 C 217.652344 103.785156 218.171875 103.269531 218.808594 103.269531 C 219.449219 103.269531 219.964844 103.785156 219.964844 104.421875 Z M 252.957031 176.316406 C 252.957031 175.605469 253.535156 175.027344 254.25 175.027344 C 254.964844 175.027344 255.558594 175.605469 255.558594 176.316406 C 255.558594 177.046875 254.964844 177.625 254.25 177.625 C 253.535156 177.625 252.957031 177.046875 252.957031 176.316406 Z M 218.871094 115.273438 C 218.230469 115.273438 217.714844 114.757812 217.714844 114.121094 C 217.714844 113.484375 218.230469 112.96875 218.871094 112.96875 C 219.507812 112.96875 220.027344 113.484375 220.027344 114.121094 C 220.027344 114.757812 219.507812 115.273438 218.871094 115.273438 Z M 230.210938 116.003906 C 229.574219 116.003906 229.054688 115.488281 229.054688 114.851562 C 229.054688 114.210938 229.574219 113.695312 230.210938 113.695312 C 230.851562 113.695312 231.371094 114.210938 231.371094 114.851562 C 231.371094 115.488281 230.851562 116.003906 230.210938 116.003906 Z M 247.613281 166.332031 C 247.613281 165.617188 248.207031 165.042969 248.921875 165.042969 C 249.636719 165.042969 250.214844 165.617188 250.214844 166.332031 C 250.214844 167.058594 249.636719 167.636719 248.921875 167.636719 C 248.207031 167.636719 247.613281 167.058594 247.613281 166.332031 Z M 247.613281 166.332031 " fill-opacity="1" fill-rule="evenodd"/></g><g clip-path="url(#152012a2ab)"><path fill="#343532" d="M 200.554688 199.144531 L 129.566406 199.144531 C 128.136719 199.144531 126.980469 200.3125 126.980469 201.738281 C 126.980469 203.152344 128.136719 204.320312 129.566406 204.320312 L 148.78125 204.320312 C 149.496094 203.53125 150.515625 203.03125 151.671875 203.03125 C 152.601562 203.03125 153.46875 203.363281 154.136719 203.925781 C 155.007812 204.625 155.554688 205.703125 155.554688 206.898438 C 155.554688 207.886719 155.171875 208.796875 154.550781 209.480469 C 153.847656 210.269531 152.8125 210.769531 151.671875 210.769531 C 150.515625 210.769531 149.496094 210.269531 148.78125 209.480469 L 113.503906 209.480469 C 112.089844 209.480469 110.917969 210.648438 110.917969 212.0625 C 110.917969 213.488281 112.089844 214.65625 113.503906 214.65625 L 152.523438 214.65625 C 153.238281 213.867188 154.261719 213.367188 155.417969 213.367188 C 156.359375 213.367188 157.214844 213.699219 157.882812 214.261719 C 158.644531 214.867188 159.148438 215.777344 159.269531 216.796875 L 200.554688 216.796875 C 205 216.796875 208.699219 213.488281 209.308594 209.207031 L 212.734375 209.207031 L 212.734375 216.796875 L 229.542969 216.796875 L 229.542969 216.082031 C 218.960938 212.515625 217.210938 206.339844 217.210938 196.777344 L 212.734375 196.777344 L 212.734375 206.355469 L 209.25 206.355469 C 208.488281 202.269531 204.863281 199.144531 200.554688 199.144531 Z M 200.554688 199.144531 " fill-opacity="1" fill-rule="evenodd"/></g><path fill="#ef8535" d="M 151.671875 208.464844 C 152.539062 208.464844 153.242188 207.765625 153.242188 206.898438 C 153.242188 206.035156 152.539062 205.335938 151.671875 205.335938 C 150.804688 205.335938 150.089844 206.035156 150.089844 206.898438 C 150.089844 207.765625 150.804688 208.464844 151.671875 208.464844 Z M 151.671875 208.464844 " fill-opacity="1" fill-rule="evenodd"/><g clip-path="url(#4f836a9ff0)"><path fill="#ef8535" d="M 156.925781 216.796875 C 156.726562 216.144531 156.132812 215.65625 155.417969 215.65625 C 154.703125 215.65625 154.09375 216.144531 153.894531 216.796875 Z M 156.925781 216.796875 " fill-opacity="1" fill-rule="evenodd"/></g></svg>