<svg xmlns="http://www.w3.org/2000/svg" xmlns:xlink="http://www.w3.org/1999/xlink" width="500" zoomAndPan="magnify" viewBox="0 0 375 374.999991" height="500" preserveAspectRatio="xMidYMid meet" version="1.0"><defs><g/><clipPath id="7ea93bdd84"><path d="M 105 73.855469 L 274.660156 73.855469 L 274.660156 185 L 105 185 Z M 105 73.855469 " clip-rule="nonzero"/></clipPath><clipPath id="6da9e7b49b"><path d="M 100.660156 181 L 236 181 L 236 204.21875 L 100.660156 204.21875 Z M 100.660156 181 " clip-rule="nonzero"/></clipPath><clipPath id="136e196a62"><path d="M 149 203 L 153 203 L 153 204.21875 L 149 204.21875 Z M 149 203 " clip-rule="nonzero"/></clipPath></defs><rect x="-37.5" width="450" fill="#ffffff" y="-37.499999" height="449.999989" fill-opacity="1"/><rect x="-37.5" width="450" fill="#f1caa1" y="-37.499999" height="449.999989" fill-opacity="1"/><g fill="#763c00" fill-opacity="1"><g transform="translate(65.651612, 262.165017)"><g><path d="M 16.96875 7.6875 C 15.945312 7.6875 15.210938 7.625 14.765625 7.5 C 14.316406 7.375 13.960938 7.085938 13.703125 6.640625 C 13.546875 6.378906 13.445312 6.097656 13.40625 5.796875 C 13.375 5.492188 13.359375 4.875 13.359375 3.9375 L 13.359375 0 L 9.953125 0 C 8.222656 0 6.785156 -0.195312 5.640625 -0.59375 C 4.503906 -1 3.613281 -1.710938 2.96875 -2.734375 C 2.332031 -3.765625 1.882812 -5.175781 1.625 -6.96875 C 1.375 -8.757812 1.25 -11.035156 1.25 -13.796875 L 1.25 -19.5625 C 1.25 -21.90625 1.390625 -23.878906 1.671875 -25.484375 C 1.960938 -27.085938 2.445312 -28.375 3.125 -29.34375 C 3.800781 -30.320312 4.695312 -31.019531 5.8125 -31.4375 C 6.9375 -31.851562 8.316406 -32.0625 9.953125 -32.0625 L 13.609375 -32.0625 C 15.523438 -32.0625 17.066406 -31.78125 18.234375 -31.21875 C 19.410156 -30.664062 20.269531 -29.78125 20.8125 -28.5625 C 21.070312 -28.007812 21.28125 -27.453125 21.4375 -26.890625 C 21.601562 -26.335938 21.734375 -25.695312 21.828125 -24.96875 C 21.921875 -24.25 21.988281 -23.414062 22.03125 -22.46875 C 22.082031 -21.53125 22.109375 -20.382812 22.109375 -19.03125 L 22.109375 -11.4375 C 22.109375 -8.457031 21.8125 -6.109375 21.21875 -4.390625 C 20.632812 -2.679688 19.71875 -1.457031 18.46875 -0.71875 L 18.46875 1.109375 C 18.46875 2.035156 18.929688 2.5 19.859375 2.5 L 22.109375 2.5 L 22.109375 7.6875 Z M 13.515625 -22.890625 C 13.515625 -24.585938 12.921875 -25.4375 11.734375 -25.4375 C 11.148438 -25.4375 10.691406 -25.203125 10.359375 -24.734375 C 10.023438 -24.265625 9.859375 -23.648438 9.859375 -22.890625 L 9.859375 -9.09375 C 9.859375 -8.289062 10.023438 -7.660156 10.359375 -7.203125 C 10.691406 -6.753906 11.148438 -6.53125 11.734375 -6.53125 C 12.921875 -6.53125 13.515625 -7.382812 13.515625 -9.09375 Z M 13.515625 -22.890625 "/></g></g></g><g fill="#763c00" fill-opacity="1"><g transform="translate(91.994903, 262.165017)"><g><path d="M 10.1875 0 C 8.070312 0 6.476562 -0.0859375 5.40625 -0.265625 C 4.332031 -0.441406 3.539062 -0.753906 3.03125 -1.203125 C 2.519531 -1.648438 2.140625 -2.296875 1.890625 -3.140625 C 1.648438 -3.992188 1.53125 -5.125 1.53125 -6.53125 L 1.53125 -32.0625 L 10.140625 -32.0625 L 10.140625 -9.65625 C 10.140625 -7.707031 10.734375 -6.734375 11.921875 -6.734375 C 13.140625 -6.734375 13.75 -7.707031 13.75 -9.65625 L 13.75 -32.0625 L 22.359375 -32.0625 L 22.359375 -6.53125 C 22.359375 -5.125 22.238281 -3.992188 22 -3.140625 C 21.757812 -2.296875 21.378906 -1.648438 20.859375 -1.203125 C 20.347656 -0.753906 19.546875 -0.441406 18.453125 -0.265625 C 17.367188 -0.0859375 15.785156 0 13.703125 0 Z M 10.1875 0 "/></g></g></g><g fill="#763c00" fill-opacity="1"><g transform="translate(118.915033, 262.165017)"><g><path d="M 1.53125 -25.53125 C 1.53125 -26.9375 1.648438 -28.0625 1.890625 -28.90625 C 2.140625 -29.757812 2.519531 -30.410156 3.03125 -30.859375 C 3.539062 -31.316406 4.332031 -31.628906 5.40625 -31.796875 C 6.476562 -31.972656 8.070312 -32.0625 10.1875 -32.0625 L 13.703125 -32.0625 C 15.816406 -32.0625 17.410156 -31.972656 18.484375 -31.796875 C 19.554688 -31.628906 20.347656 -31.316406 20.859375 -30.859375 C 21.378906 -30.410156 21.757812 -29.757812 22 -28.90625 C 22.238281 -28.0625 22.359375 -26.9375 22.359375 -25.53125 L 22.359375 0 L 13.75 0 L 13.75 -6.78125 L 10.140625 -6.78125 L 10.140625 0 L 1.53125 0 Z M 13.75 -13.890625 L 13.75 -22.359375 C 13.75 -24.347656 13.140625 -25.34375 11.921875 -25.34375 C 10.734375 -25.34375 10.140625 -24.347656 10.140625 -22.359375 L 10.140625 -13.890625 Z M 13.75 -13.890625 "/></g></g></g><g fill="#763c00" fill-opacity="1"><g transform="translate(145.883239, 262.165017)"><g><path d="M 1.53125 -32.0625 L 14.65625 -32.0625 C 15.75 -32.0625 16.613281 -32.050781 17.25 -32.03125 C 17.894531 -32.019531 18.410156 -31.988281 18.796875 -31.9375 C 19.179688 -31.894531 19.484375 -31.828125 19.703125 -31.734375 C 19.929688 -31.640625 20.175781 -31.507812 20.4375 -31.34375 C 21.71875 -30.507812 22.359375 -28.679688 22.359375 -25.859375 L 22.359375 -23.796875 C 22.359375 -22.992188 22.347656 -22.320312 22.328125 -21.78125 C 22.316406 -21.238281 22.273438 -20.773438 22.203125 -20.390625 C 22.140625 -20.003906 22.050781 -19.664062 21.9375 -19.375 C 21.832031 -19.082031 21.679688 -18.796875 21.484375 -18.515625 C 21.097656 -17.867188 20.625 -17.394531 20.0625 -17.09375 C 19.507812 -16.789062 18.703125 -16.570312 17.640625 -16.4375 C 18.609375 -16.15625 19.394531 -15.859375 20 -15.546875 C 20.601562 -15.242188 21.082031 -14.859375 21.4375 -14.390625 C 21.789062 -13.929688 22.03125 -13.378906 22.15625 -12.734375 C 22.289062 -12.097656 22.359375 -11.300781 22.359375 -10.34375 L 22.359375 -5.390625 C 22.359375 -3.429688 22.582031 -1.632812 23.03125 0 L 14.421875 0 C 14.160156 -0.832031 13.984375 -1.632812 13.890625 -2.40625 C 13.796875 -3.175781 13.75 -4.171875 13.75 -5.390625 L 13.75 -9.65625 C 13.75 -10.6875 13.554688 -11.425781 13.171875 -11.875 C 12.785156 -12.320312 12.144531 -12.546875 11.25 -12.546875 L 10.140625 -12.546875 L 10.140625 0 L 1.53125 0 Z M 11.34375 -19.515625 C 12.34375 -19.515625 13 -19.691406 13.3125 -20.046875 C 13.632812 -20.398438 13.796875 -21.140625 13.796875 -22.265625 C 13.796875 -23.316406 13.617188 -24.050781 13.265625 -24.46875 C 12.910156 -24.882812 12.269531 -25.09375 11.34375 -25.09375 L 10.140625 -25.09375 L 10.140625 -19.515625 Z M 11.34375 -19.515625 "/></g></g></g><g fill="#763c00" fill-opacity="1"><g transform="translate(172.803369, 262.165017)"><g><path d="M 1.53125 -32.0625 L 14.65625 -32.0625 C 15.75 -32.0625 16.613281 -32.050781 17.25 -32.03125 C 17.894531 -32.019531 18.410156 -31.988281 18.796875 -31.9375 C 19.179688 -31.894531 19.484375 -31.828125 19.703125 -31.734375 C 19.929688 -31.640625 20.175781 -31.507812 20.4375 -31.34375 C 21.71875 -30.507812 22.359375 -28.679688 22.359375 -25.859375 L 22.359375 -23.796875 C 22.359375 -22.992188 22.347656 -22.320312 22.328125 -21.78125 C 22.316406 -21.238281 22.273438 -20.773438 22.203125 -20.390625 C 22.140625 -20.003906 22.050781 -19.664062 21.9375 -19.375 C 21.832031 -19.082031 21.679688 -18.796875 21.484375 -18.515625 C 21.097656 -17.867188 20.625 -17.394531 20.0625 -17.09375 C 19.507812 -16.789062 18.703125 -16.570312 17.640625 -16.4375 C 18.609375 -16.15625 19.394531 -15.859375 20 -15.546875 C 20.601562 -15.242188 21.082031 -14.859375 21.4375 -14.390625 C 21.789062 -13.929688 22.03125 -13.378906 22.15625 -12.734375 C 22.289062 -12.097656 22.359375 -11.300781 22.359375 -10.34375 L 22.359375 -5.390625 C 22.359375 -3.429688 22.582031 -1.632812 23.03125 0 L 14.421875 0 C 14.160156 -0.832031 13.984375 -1.632812 13.890625 -2.40625 C 13.796875 -3.175781 13.75 -4.171875 13.75 -5.390625 L 13.75 -9.65625 C 13.75 -10.6875 13.554688 -11.425781 13.171875 -11.875 C 12.785156 -12.320312 12.144531 -12.546875 11.25 -12.546875 L 10.140625 -12.546875 L 10.140625 0 L 1.53125 0 Z M 11.34375 -19.515625 C 12.34375 -19.515625 13 -19.691406 13.3125 -20.046875 C 13.632812 -20.398438 13.796875 -21.140625 13.796875 -22.265625 C 13.796875 -23.316406 13.617188 -24.050781 13.265625 -24.46875 C 12.910156 -24.882812 12.269531 -25.09375 11.34375 -25.09375 L 10.140625 -25.09375 L 10.140625 -19.515625 Z M 11.34375 -19.515625 "/></g></g></g><g fill="#763c00" fill-opacity="1"><g transform="translate(199.723499, 262.165017)"><g><path d="M 6.96875 -8.3125 C 4.757812 -9.757812 3.09375 -11.765625 1.96875 -14.328125 C 1.75 -14.867188 1.566406 -15.351562 1.421875 -15.78125 C 1.273438 -16.21875 1.171875 -16.691406 1.109375 -17.203125 C 1.046875 -17.722656 0.992188 -18.328125 0.953125 -19.015625 C 0.921875 -19.703125 0.90625 -20.578125 0.90625 -21.640625 L 0.90625 -32.0625 L 9.515625 -32.0625 L 9.515625 -21.484375 C 9.515625 -20.335938 9.53125 -19.394531 9.5625 -18.65625 C 9.59375 -17.914062 9.664062 -17.296875 9.78125 -16.796875 C 9.894531 -16.304688 10.070312 -15.875 10.3125 -15.5 C 10.550781 -15.132812 10.863281 -14.726562 11.25 -14.28125 C 11.632812 -14.726562 11.945312 -15.132812 12.1875 -15.5 C 12.425781 -15.875 12.601562 -16.304688 12.71875 -16.796875 C 12.832031 -17.296875 12.90625 -17.914062 12.9375 -18.65625 C 12.96875 -19.394531 12.984375 -20.335938 12.984375 -21.484375 L 12.984375 -32.0625 L 21.59375 -32.0625 L 21.59375 -21.640625 C 21.59375 -20.578125 21.570312 -19.703125 21.53125 -19.015625 C 21.5 -18.328125 21.453125 -17.722656 21.390625 -17.203125 C 21.328125 -16.691406 21.222656 -16.21875 21.078125 -15.78125 C 20.929688 -15.351562 20.75 -14.867188 20.53125 -14.328125 C 19.988281 -13.078125 19.304688 -11.945312 18.484375 -10.9375 C 17.671875 -9.925781 16.703125 -9.050781 15.578125 -8.3125 L 15.578125 0 L 6.96875 0 Z M 6.96875 -8.3125 "/></g></g></g><g fill="#763c00" fill-opacity="1"><g transform="translate(225.24959, 262.165017)"><g><path d="M 1.53125 -23.9375 C 1.53125 -25.863281 1.488281 -27.441406 1.40625 -28.671875 C 1.332031 -29.910156 1.21875 -31.039062 1.0625 -32.0625 L 10.90625 -32.0625 C 10.65625 -30.78125 10.460938 -29.503906 10.328125 -28.234375 C 10.203125 -26.972656 10.140625 -25.625 10.140625 -24.1875 L 10.140625 -6.96875 L 15.90625 -7.3125 L 14.375 0 L 1.53125 0 Z M 1.53125 -23.9375 "/></g></g></g><g fill="#763c00" fill-opacity="1"><g transform="translate(243.901616, 262.165017)"><g><path d="M 1.53125 -32.0625 L 10.140625 -32.0625 L 10.140625 0 L 1.53125 0 Z M 1.53125 -32.0625 "/></g></g></g><g fill="#763c00" fill-opacity="1"><g transform="translate(258.611874, 262.165017)"><g><path d="M 1.59375 -24.765625 C 1.59375 -25.535156 1.582031 -26.210938 1.5625 -26.796875 C 1.539062 -27.390625 1.5 -27.96875 1.4375 -28.53125 C 1.375 -29.09375 1.285156 -29.65625 1.171875 -30.21875 C 1.066406 -30.78125 0.929688 -31.394531 0.765625 -32.0625 L 9.46875 -32.0625 C 9.59375 -31.582031 9.703125 -31.164062 9.796875 -30.8125 C 9.898438 -30.46875 9.972656 -30.140625 10.015625 -29.828125 C 10.066406 -29.523438 10.113281 -29.222656 10.15625 -28.921875 C 10.207031 -28.617188 10.25 -28.257812 10.28125 -27.84375 C 10.507812 -28.675781 10.765625 -29.363281 11.046875 -29.90625 C 11.335938 -30.445312 11.695312 -30.878906 12.125 -31.203125 C 12.5625 -31.523438 13.109375 -31.75 13.765625 -31.875 C 14.429688 -32 15.226562 -32.0625 16.15625 -32.0625 C 16.988281 -32.0625 17.691406 -32.03125 18.265625 -31.96875 C 18.847656 -31.90625 19.347656 -31.773438 19.765625 -31.578125 C 20.179688 -31.390625 20.523438 -31.144531 20.796875 -30.84375 C 21.066406 -30.539062 21.332031 -30.148438 21.59375 -29.671875 C 21.75 -29.347656 21.875 -29.066406 21.96875 -28.828125 C 22.0625 -28.585938 22.132812 -28.21875 22.1875 -27.71875 C 22.238281 -27.21875 22.265625 -26.503906 22.265625 -25.578125 C 22.265625 -24.648438 22.265625 -23.335938 22.265625 -21.640625 L 22.265625 0 L 13.65625 0 L 13.65625 -22.15625 C 13.65625 -23.863281 13.078125 -24.71875 11.921875 -24.71875 C 10.765625 -24.71875 10.1875 -23.832031 10.1875 -22.0625 L 10.1875 0 L 1.59375 0 Z M 1.59375 -24.765625 "/></g></g></g><g fill="#763c00" fill-opacity="1"><g transform="translate(285.435862, 262.165017)"><g><path d="M 1.53125 -32.0625 L 10.140625 -32.0625 L 10.140625 -19.515625 L 11.390625 -19.515625 C 11.867188 -19.515625 12.257812 -19.578125 12.5625 -19.703125 C 12.875 -19.835938 13.117188 -20.070312 13.296875 -20.40625 C 13.472656 -20.738281 13.59375 -21.207031 13.65625 -21.8125 C 13.71875 -22.425781 13.75 -23.21875 13.75 -24.1875 L 13.75 -27.890625 C 13.75 -28.816406 13.804688 -29.578125 13.921875 -30.171875 C 14.035156 -30.765625 14.21875 -31.394531 14.46875 -32.0625 L 23.03125 -32.0625 C 22.863281 -31.675781 22.738281 -31.320312 22.65625 -31 C 22.582031 -30.6875 22.519531 -30.34375 22.46875 -29.96875 C 22.425781 -29.601562 22.394531 -29.1875 22.375 -28.71875 C 22.363281 -28.257812 22.359375 -27.675781 22.359375 -26.96875 L 22.359375 -23.171875 C 22.359375 -22.429688 22.34375 -21.8125 22.3125 -21.3125 C 22.28125 -20.820312 22.222656 -20.390625 22.140625 -20.015625 C 22.054688 -19.648438 21.929688 -19.335938 21.765625 -19.078125 C 21.609375 -18.828125 21.40625 -18.554688 21.15625 -18.265625 C 20.925781 -18.015625 20.695312 -17.800781 20.46875 -17.625 C 20.25 -17.445312 19.988281 -17.289062 19.6875 -17.15625 C 19.382812 -17.03125 19.03125 -16.910156 18.625 -16.796875 C 18.226562 -16.691406 17.738281 -16.585938 17.15625 -16.484375 L 16.53125 -16.34375 L 17.546875 -16.203125 C 19.335938 -15.878906 20.585938 -15.285156 21.296875 -14.421875 C 22.003906 -13.554688 22.359375 -12.175781 22.359375 -10.28125 L 22.359375 -5.765625 C 22.359375 -4.992188 22.363281 -4.351562 22.375 -3.84375 C 22.394531 -3.332031 22.425781 -2.867188 22.46875 -2.453125 C 22.519531 -2.035156 22.582031 -1.640625 22.65625 -1.265625 C 22.738281 -0.898438 22.863281 -0.476562 23.03125 0 L 14.765625 0 C 14.535156 -0.382812 14.351562 -0.753906 14.21875 -1.109375 C 14.09375 -1.460938 13.988281 -1.835938 13.90625 -2.234375 C 13.832031 -2.640625 13.785156 -3.113281 13.765625 -3.65625 C 13.753906 -4.195312 13.75 -4.851562 13.75 -5.625 L 13.75 -8.5625 C 13.75 -10.03125 13.5625 -11.0625 13.1875 -11.65625 C 12.820312 -12.25 12.175781 -12.546875 11.25 -12.546875 L 10.140625 -12.546875 L 10.140625 0 L 1.53125 0 Z M 1.53125 -32.0625 "/></g></g></g><g fill="#ef8535" fill-opacity="1"><g transform="translate(112.439242, 292.823155)"><g><path d="M 3.421875 -9.171875 L 5.765625 -2.9375 L 5.78125 -2.9375 L 8.140625 -9.171875 L 10.875 -9.171875 L 10.875 -8.046875 L 10.421875 -8 C 10.140625 -7.976562 10.003906 -7.820312 10.015625 -7.53125 L 10.359375 -1.21875 L 11.21875 -1.171875 L 11.21875 0 L 7.890625 0 L 7.890625 -1.109375 L 8.390625 -1.15625 C 8.640625 -1.175781 8.757812 -1.296875 8.75 -1.515625 L 8.484375 -6.375 L 8.46875 -6.375 L 6.34375 -0.875 L 5.03125 -0.875 L 2.9375 -6.328125 L 2.90625 -6.328125 L 2.625 -1.21875 L 3.53125 -1.171875 L 3.53125 0 L 0.28125 0 L 0.28125 -1.109375 L 0.765625 -1.15625 C 0.984375 -1.175781 1.097656 -1.300781 1.109375 -1.53125 L 1.484375 -7.9375 L 0.640625 -8 L 0.640625 -9.171875 Z M 3.421875 -9.171875 "/></g></g></g><g fill="#ef8535" fill-opacity="1"><g transform="translate(127.341512, 292.823155)"><g><path d="M 2.953125 -6.9375 L 2.953125 -1.140625 L 3.734375 -1.109375 L 3.734375 0 L 0.453125 0 L 0.453125 -1.046875 L 0.90625 -1.09375 C 1.175781 -1.113281 1.3125 -1.257812 1.3125 -1.53125 L 1.3125 -5.359375 C 1.3125 -5.515625 1.285156 -5.617188 1.234375 -5.671875 C 1.179688 -5.734375 1.09375 -5.765625 0.96875 -5.765625 L 0.484375 -5.78125 L 0.484375 -6.9375 Z M 1.203125 -8.125 C 1.015625 -8.3125 0.921875 -8.550781 0.921875 -8.84375 C 0.921875 -9.132812 1.015625 -9.378906 1.203125 -9.578125 C 1.398438 -9.773438 1.65625 -9.875 1.96875 -9.875 C 2.28125 -9.875 2.535156 -9.773438 2.734375 -9.578125 C 2.929688 -9.378906 3.03125 -9.132812 3.03125 -8.84375 C 3.03125 -8.550781 2.929688 -8.3125 2.734375 -8.125 C 2.535156 -7.9375 2.28125 -7.84375 1.96875 -7.84375 C 1.65625 -7.84375 1.398438 -7.9375 1.203125 -8.125 Z M 1.203125 -8.125 "/></g></g></g><g fill="#ef8535" fill-opacity="1"><g transform="translate(134.835758, 292.823155)"><g><path d="M 0.375 -5.828125 L 0.375 -6.9375 L 2.703125 -6.9375 L 2.703125 -6.03125 C 2.941406 -6.375 3.257812 -6.644531 3.65625 -6.84375 C 4.050781 -7.039062 4.476562 -7.140625 4.9375 -7.140625 C 5.632812 -7.140625 6.171875 -6.9375 6.546875 -6.53125 C 6.929688 -6.132812 7.125 -5.535156 7.125 -4.734375 L 7.125 -1.140625 L 7.90625 -1.109375 L 7.90625 0 L 4.625 0 L 4.625 -1.046875 L 5.078125 -1.09375 C 5.222656 -1.101562 5.328125 -1.140625 5.390625 -1.203125 C 5.453125 -1.265625 5.484375 -1.378906 5.484375 -1.546875 L 5.484375 -4.375 C 5.484375 -4.882812 5.40625 -5.257812 5.25 -5.5 C 5.09375 -5.75 4.796875 -5.875 4.359375 -5.875 C 3.921875 -5.875 3.570312 -5.734375 3.3125 -5.453125 C 3.0625 -5.179688 2.9375 -4.859375 2.9375 -4.484375 L 2.9375 -1.140625 L 3.71875 -1.109375 L 3.71875 0 L 0.4375 0 L 0.4375 -1.046875 L 0.890625 -1.09375 C 1.035156 -1.101562 1.140625 -1.140625 1.203125 -1.203125 C 1.265625 -1.265625 1.296875 -1.378906 1.296875 -1.546875 L 1.296875 -5.359375 C 1.296875 -5.640625 1.179688 -5.78125 0.953125 -5.78125 Z M 0.375 -5.828125 "/></g></g></g><g fill="#ef8535" fill-opacity="1"><g transform="translate(146.515955, 292.823155)"><g><path d="M 2.953125 -6.9375 L 2.953125 -1.140625 L 3.734375 -1.109375 L 3.734375 0 L 0.453125 0 L 0.453125 -1.046875 L 0.90625 -1.09375 C 1.175781 -1.113281 1.3125 -1.257812 1.3125 -1.53125 L 1.3125 -5.359375 C 1.3125 -5.515625 1.285156 -5.617188 1.234375 -5.671875 C 1.179688 -5.734375 1.09375 -5.765625 0.96875 -5.765625 L 0.484375 -5.78125 L 0.484375 -6.9375 Z M 1.203125 -8.125 C 1.015625 -8.3125 0.921875 -8.550781 0.921875 -8.84375 C 0.921875 -9.132812 1.015625 -9.378906 1.203125 -9.578125 C 1.398438 -9.773438 1.65625 -9.875 1.96875 -9.875 C 2.28125 -9.875 2.535156 -9.773438 2.734375 -9.578125 C 2.929688 -9.378906 3.03125 -9.132812 3.03125 -8.84375 C 3.03125 -8.550781 2.929688 -8.3125 2.734375 -8.125 C 2.535156 -7.9375 2.28125 -7.84375 1.96875 -7.84375 C 1.65625 -7.84375 1.398438 -7.9375 1.203125 -8.125 Z M 1.203125 -8.125 "/></g></g></g><g fill="#ef8535" fill-opacity="1"><g transform="translate(154.010201, 292.823155)"><g><path d="M 0.375 -5.828125 L 0.375 -6.9375 L 2.703125 -6.9375 L 2.703125 -6.03125 C 2.941406 -6.375 3.257812 -6.644531 3.65625 -6.84375 C 4.050781 -7.039062 4.476562 -7.140625 4.9375 -7.140625 C 5.632812 -7.140625 6.171875 -6.9375 6.546875 -6.53125 C 6.929688 -6.132812 7.125 -5.535156 7.125 -4.734375 L 7.125 -1.140625 L 7.90625 -1.109375 L 7.90625 0 L 4.625 0 L 4.625 -1.046875 L 5.078125 -1.09375 C 5.222656 -1.101562 5.328125 -1.140625 5.390625 -1.203125 C 5.453125 -1.265625 5.484375 -1.378906 5.484375 -1.546875 L 5.484375 -4.375 C 5.484375 -4.882812 5.40625 -5.257812 5.25 -5.5 C 5.09375 -5.75 4.796875 -5.875 4.359375 -5.875 C 3.921875 -5.875 3.570312 -5.734375 3.3125 -5.453125 C 3.0625 -5.179688 2.9375 -4.859375 2.9375 -4.484375 L 2.9375 -1.140625 L 3.71875 -1.109375 L 3.71875 0 L 0.4375 0 L 0.4375 -1.046875 L 0.890625 -1.09375 C 1.035156 -1.101562 1.140625 -1.140625 1.203125 -1.203125 C 1.265625 -1.265625 1.296875 -1.378906 1.296875 -1.546875 L 1.296875 -5.359375 C 1.296875 -5.640625 1.179688 -5.78125 0.953125 -5.78125 Z M 0.375 -5.828125 "/></g></g></g><g fill="#ef8535" fill-opacity="1"><g transform="translate(165.690401, 292.823155)"><g><path d="M 6.59375 -0.015625 C 6.507812 1.003906 6.210938 1.753906 5.703125 2.234375 C 5.203125 2.710938 4.410156 2.953125 3.328125 2.953125 C 2.253906 2.953125 1.414062 2.800781 0.8125 2.5 L 0.8125 0.578125 L 2.125 0.46875 L 2.125 1.125 C 2.125 1.375 2.238281 1.539062 2.46875 1.625 C 2.695312 1.71875 3.015625 1.765625 3.421875 1.765625 C 4.003906 1.765625 4.414062 1.585938 4.65625 1.234375 C 4.894531 0.878906 5.015625 0.378906 5.015625 -0.265625 L 5.015625 -1.015625 C 4.578125 -0.503906 3.96875 -0.25 3.1875 -0.25 C 2.707031 -0.25 2.285156 -0.335938 1.921875 -0.515625 C 1.554688 -0.703125 1.273438 -0.953125 1.078125 -1.265625 C 0.679688 -1.890625 0.484375 -2.625 0.484375 -3.46875 C 0.484375 -4.675781 0.804688 -5.585938 1.453125 -6.203125 C 2.109375 -6.828125 2.976562 -7.140625 4.0625 -7.140625 C 4.96875 -7.140625 5.816406 -6.96875 6.609375 -6.625 L 6.609375 -1.515625 C 6.609375 -0.734375 6.601562 -0.234375 6.59375 -0.015625 Z M 5.015625 -2.8125 L 5.015625 -5.78125 C 4.691406 -5.882812 4.320312 -5.9375 3.90625 -5.9375 C 3.351562 -5.9375 2.925781 -5.726562 2.625 -5.3125 C 2.320312 -4.90625 2.171875 -4.347656 2.171875 -3.640625 C 2.171875 -2.179688 2.648438 -1.453125 3.609375 -1.453125 C 4.003906 -1.453125 4.335938 -1.570312 4.609375 -1.8125 C 4.878906 -2.0625 5.015625 -2.394531 5.015625 -2.8125 Z M 5.015625 -2.8125 "/></g></g></g><g fill="#ef8535" fill-opacity="1"><g transform="translate(176.599509, 292.823155)"><g/></g></g><g fill="#ef8535" fill-opacity="1"><g transform="translate(182.771885, 292.823155)"><g><path d="M 6.015625 -7.703125 C 5.910156 -7.878906 5.53125 -7.96875 4.875 -7.96875 C 4.019531 -7.96875 3.375 -7.675781 2.9375 -7.09375 C 2.5 -6.519531 2.28125 -5.6875 2.28125 -4.59375 C 2.28125 -2.320312 3.128906 -1.1875 4.828125 -1.1875 C 4.847656 -1.1875 4.96875 -1.1875 5.1875 -1.1875 C 5.40625 -1.1875 5.609375 -1.210938 5.796875 -1.265625 C 5.992188 -1.328125 6.109375 -1.390625 6.140625 -1.453125 C 6.179688 -1.523438 6.203125 -1.628906 6.203125 -1.765625 L 6.203125 -2.859375 L 7.609375 -2.765625 L 7.609375 -0.390625 C 6.890625 -0.015625 5.976562 0.171875 4.875 0.171875 C 3.46875 0.171875 2.394531 -0.21875 1.65625 -1 C 0.914062 -1.789062 0.546875 -2.96875 0.546875 -4.53125 C 0.546875 -5.394531 0.671875 -6.148438 0.921875 -6.796875 C 1.171875 -7.441406 1.503906 -7.941406 1.921875 -8.296875 C 2.753906 -8.984375 3.738281 -9.328125 4.875 -9.328125 C 5.789062 -9.328125 6.65625 -9.140625 7.46875 -8.765625 L 7.46875 -6.421875 L 6.0625 -6.328125 L 6.0625 -7.40625 C 6.0625 -7.539062 6.046875 -7.640625 6.015625 -7.703125 Z M 6.015625 -7.703125 "/></g></g></g><g fill="#ef8535" fill-opacity="1"><g transform="translate(194.47962, 292.823155)"><g><path d="M 3.625 -1 C 4.625 -1 5.125 -1.8125 5.125 -3.4375 C 5.125 -4.25 5.007812 -4.863281 4.78125 -5.28125 C 4.5625 -5.707031 4.1875 -5.921875 3.65625 -5.921875 C 3.125 -5.921875 2.734375 -5.71875 2.484375 -5.3125 C 2.242188 -4.914062 2.125 -4.367188 2.125 -3.671875 C 2.125 -2.367188 2.363281 -1.550781 2.84375 -1.21875 C 3.050781 -1.070312 3.3125 -1 3.625 -1 Z M 0.453125 -3.46875 C 0.453125 -4.15625 0.550781 -4.75 0.75 -5.25 C 0.957031 -5.75 1.234375 -6.128906 1.578125 -6.390625 C 2.222656 -6.890625 2.941406 -7.140625 3.734375 -7.140625 C 4.285156 -7.140625 4.75 -7.046875 5.125 -6.859375 C 5.507812 -6.679688 5.8125 -6.472656 6.03125 -6.234375 C 6.25 -6.003906 6.429688 -5.664062 6.578125 -5.21875 C 6.734375 -4.78125 6.8125 -4.257812 6.8125 -3.65625 C 6.8125 -2.382812 6.503906 -1.421875 5.890625 -0.765625 C 5.273438 -0.117188 4.484375 0.203125 3.515625 0.203125 C 2.554688 0.203125 1.804688 -0.101562 1.265625 -0.71875 C 0.722656 -1.34375 0.453125 -2.257812 0.453125 -3.46875 Z M 0.453125 -3.46875 "/></g></g></g><g fill="#ef8535" fill-opacity="1"><g transform="translate(205.168406, 292.823155)"><g><path d="M 0.375 -5.8125 L 0.375 -6.9375 L 2.703125 -6.9375 L 2.703125 -6.03125 C 3.210938 -6.769531 3.914062 -7.140625 4.8125 -7.140625 C 5.707031 -7.140625 6.3125 -6.769531 6.625 -6.03125 C 7.144531 -6.769531 7.84375 -7.140625 8.71875 -7.140625 C 9.382812 -7.140625 9.894531 -6.9375 10.25 -6.53125 C 10.613281 -6.132812 10.796875 -5.535156 10.796875 -4.734375 L 10.796875 -1.140625 L 11.578125 -1.109375 L 11.578125 0 L 8.296875 0 L 8.296875 -1.046875 L 8.75 -1.09375 C 8.882812 -1.101562 8.984375 -1.140625 9.046875 -1.203125 C 9.109375 -1.265625 9.144531 -1.375 9.15625 -1.53125 L 9.15625 -4.375 C 9.15625 -4.882812 9.097656 -5.257812 8.984375 -5.5 C 8.867188 -5.75 8.597656 -5.875 8.171875 -5.875 C 7.742188 -5.875 7.414062 -5.742188 7.1875 -5.484375 C 6.96875 -5.222656 6.859375 -4.878906 6.859375 -4.453125 L 6.859375 -1.140625 L 7.625 -1.109375 L 7.625 0 L 4.375 0 L 4.375 -1.046875 L 4.828125 -1.09375 C 4.960938 -1.101562 5.0625 -1.140625 5.125 -1.203125 C 5.1875 -1.265625 5.21875 -1.378906 5.21875 -1.546875 L 5.21875 -4.375 C 5.21875 -4.882812 5.160156 -5.257812 5.046875 -5.5 C 4.929688 -5.75 4.660156 -5.875 4.234375 -5.875 C 3.804688 -5.875 3.484375 -5.738281 3.265625 -5.46875 C 3.046875 -5.207031 2.9375 -4.878906 2.9375 -4.484375 L 2.9375 -1.140625 L 3.671875 -1.109375 L 3.671875 0 L 0.421875 0 L 0.421875 -1.046875 L 0.875 -1.09375 C 1.019531 -1.101562 1.125 -1.140625 1.1875 -1.203125 C 1.25 -1.265625 1.28125 -1.378906 1.28125 -1.546875 L 1.296875 -1.546875 L 1.296875 -5.34375 C 1.296875 -5.5 1.269531 -5.609375 1.21875 -5.671875 C 1.164062 -5.734375 1.078125 -5.769531 0.953125 -5.78125 Z M 0.375 -5.8125 "/></g></g></g><g fill="#ef8535" fill-opacity="1"><g transform="translate(220.511311, 292.823155)"><g><path d="M 1.21875 1.3125 L 1.21875 -5.359375 C 1.21875 -5.515625 1.191406 -5.625 1.140625 -5.6875 C 1.097656 -5.75 1.007812 -5.78125 0.875 -5.78125 L 0.296875 -5.8125 L 0.296875 -6.9375 L 2.625 -6.9375 L 2.625 -6.03125 C 2.78125 -6.3125 3.050781 -6.566406 3.4375 -6.796875 C 3.820312 -7.023438 4.28125 -7.140625 4.8125 -7.140625 C 6.46875 -7.140625 7.296875 -5.972656 7.296875 -3.640625 C 7.296875 -2.398438 7.023438 -1.445312 6.484375 -0.78125 C 5.941406 -0.125 5.207031 0.203125 4.28125 0.203125 C 3.726562 0.203125 3.238281 0.0703125 2.8125 -0.1875 L 2.8125 1.703125 L 3.921875 1.765625 L 3.921875 2.859375 L 0.375 2.859375 L 0.375 1.8125 L 0.828125 1.765625 C 0.960938 1.742188 1.0625 1.703125 1.125 1.640625 C 1.1875 1.585938 1.21875 1.476562 1.21875 1.3125 Z M 5.59375 -3.5 C 5.59375 -5.03125 5.128906 -5.796875 4.203125 -5.796875 C 3.816406 -5.796875 3.488281 -5.675781 3.21875 -5.4375 C 2.945312 -5.207031 2.8125 -4.929688 2.8125 -4.609375 L 2.8125 -1.453125 C 3.15625 -1.222656 3.578125 -1.109375 4.078125 -1.109375 C 4.585938 -1.109375 4.96875 -1.335938 5.21875 -1.796875 C 5.46875 -2.253906 5.59375 -2.820312 5.59375 -3.5 Z M 5.59375 -3.5 "/></g></g></g><g fill="#ef8535" fill-opacity="1"><g transform="translate(231.750873, 292.823155)"><g><path d="M 6.640625 -6.65625 L 6.640625 -1.53125 C 6.640625 -1.382812 6.664062 -1.28125 6.71875 -1.21875 C 6.769531 -1.164062 6.859375 -1.132812 6.984375 -1.125 L 7.421875 -1.109375 L 7.421875 0 L 5.234375 0 L 5.234375 -0.796875 L 5.203125 -0.8125 C 4.734375 -0.15625 4.101562 0.171875 3.3125 0.171875 C 2.375 0.171875 1.675781 -0.125 1.21875 -0.71875 C 0.769531 -1.3125 0.546875 -2.128906 0.546875 -3.171875 C 0.546875 -4.421875 0.847656 -5.394531 1.453125 -6.09375 C 2.066406 -6.789062 2.976562 -7.140625 4.1875 -7.140625 C 4.96875 -7.140625 5.785156 -6.976562 6.640625 -6.65625 Z M 5.046875 -2.1875 L 5.046875 -5.765625 C 4.785156 -5.878906 4.429688 -5.9375 3.984375 -5.9375 C 3.367188 -5.9375 2.921875 -5.6875 2.640625 -5.1875 C 2.367188 -4.695312 2.234375 -4.039062 2.234375 -3.21875 C 2.234375 -1.738281 2.710938 -1 3.671875 -1 C 4.066406 -1 4.394531 -1.117188 4.65625 -1.359375 C 4.914062 -1.597656 5.046875 -1.875 5.046875 -2.1875 Z M 5.046875 -2.1875 "/></g></g></g><g fill="#ef8535" fill-opacity="1"><g transform="translate(242.976668, 292.823155)"><g><path d="M 0.375 -5.828125 L 0.375 -6.9375 L 2.703125 -6.9375 L 2.703125 -6.03125 C 2.941406 -6.375 3.257812 -6.644531 3.65625 -6.84375 C 4.050781 -7.039062 4.476562 -7.140625 4.9375 -7.140625 C 5.632812 -7.140625 6.171875 -6.9375 6.546875 -6.53125 C 6.929688 -6.132812 7.125 -5.535156 7.125 -4.734375 L 7.125 -1.140625 L 7.90625 -1.109375 L 7.90625 0 L 4.625 0 L 4.625 -1.046875 L 5.078125 -1.09375 C 5.222656 -1.101562 5.328125 -1.140625 5.390625 -1.203125 C 5.453125 -1.265625 5.484375 -1.378906 5.484375 -1.546875 L 5.484375 -4.375 C 5.484375 -4.882812 5.40625 -5.257812 5.25 -5.5 C 5.09375 -5.75 4.796875 -5.875 4.359375 -5.875 C 3.921875 -5.875 3.570312 -5.734375 3.3125 -5.453125 C 3.0625 -5.179688 2.9375 -4.859375 2.9375 -4.484375 L 2.9375 -1.140625 L 3.71875 -1.109375 L 3.71875 0 L 0.4375 0 L 0.4375 -1.046875 L 0.890625 -1.09375 C 1.035156 -1.101562 1.140625 -1.140625 1.203125 -1.203125 C 1.265625 -1.265625 1.296875 -1.378906 1.296875 -1.546875 L 1.296875 -5.359375 C 1.296875 -5.640625 1.179688 -5.78125 0.953125 -5.78125 Z M 0.375 -5.828125 "/></g></g></g><g fill="#ef8535" fill-opacity="1"><g transform="translate(254.656862, 292.823155)"><g><path d="M 5.53125 -0.265625 L 5.53125 -1.3125 C 5.019531 -0.59375 4.273438 -0.234375 3.296875 -0.234375 C 1.867188 -0.234375 1.15625 -1.03125 1.15625 -2.625 L 1.15625 -5.390625 C 1.15625 -5.640625 1.039062 -5.769531 0.8125 -5.78125 L 0.375 -5.796875 L 0.375 -6.9375 L 2.796875 -6.9375 L 2.796875 -2.984375 C 2.796875 -2.492188 2.863281 -2.125 3 -1.875 C 3.144531 -1.625 3.429688 -1.5 3.859375 -1.5 C 4.285156 -1.5 4.628906 -1.628906 4.890625 -1.890625 C 5.160156 -2.160156 5.296875 -2.484375 5.296875 -2.859375 L 5.296875 -5.359375 C 5.296875 -5.515625 5.269531 -5.625 5.21875 -5.6875 C 5.164062 -5.75 5.078125 -5.78125 4.953125 -5.78125 L 4.5 -5.796875 L 4.5 -6.9375 L 6.9375 -6.9375 L 6.9375 -0.265625 C 6.9375 0.847656 6.664062 1.660156 6.125 2.171875 C 5.582031 2.691406 4.765625 2.953125 3.671875 2.953125 C 2.585938 2.953125 1.742188 2.800781 1.140625 2.5 L 1.140625 0.578125 L 2.453125 0.46875 L 2.453125 1.125 C 2.453125 1.375 2.566406 1.539062 2.796875 1.625 C 3.023438 1.71875 3.34375 1.765625 3.75 1.765625 C 4.9375 1.765625 5.53125 1.085938 5.53125 -0.265625 Z M 5.53125 -0.265625 "/></g></g></g><path fill="#ef8535" d="M 136.359375 176.160156 C 135.375 176.160156 134.582031 176.96875 134.582031 177.949219 C 134.582031 178.933594 135.375 179.722656 136.359375 179.722656 C 137.34375 179.722656 138.152344 178.933594 138.152344 177.949219 C 138.152344 176.96875 137.34375 176.160156 136.359375 176.160156 Z M 136.359375 176.160156 " fill-opacity="1" fill-rule="evenodd"/><path fill="#ef8535" d="M 147.769531 166.230469 C 147.769531 167.214844 148.582031 168.003906 149.5625 168.003906 C 150.546875 168.003906 151.34375 167.214844 151.34375 166.230469 C 151.34375 165.25 150.546875 164.460938 149.5625 164.460938 C 148.582031 164.460938 147.769531 165.25 147.769531 166.230469 Z M 147.769531 166.230469 " fill-opacity="1" fill-rule="evenodd"/><path fill="#ef8535" d="M 153.898438 154.511719 C 153.898438 155.492188 154.691406 156.300781 155.675781 156.300781 C 156.660156 156.300781 157.46875 155.492188 157.46875 154.511719 C 157.46875 153.53125 156.660156 152.738281 155.675781 152.738281 C 154.691406 152.738281 153.898438 153.53125 153.898438 154.511719 Z M 153.898438 154.511719 " fill-opacity="1" fill-rule="evenodd"/><path fill="#ef8535" d="M 156.089844 142.792969 C 156.089844 143.789062 156.882812 144.582031 157.867188 144.582031 C 158.851562 144.582031 159.664062 143.789062 159.664062 142.792969 C 159.664062 141.8125 158.851562 141.019531 157.867188 141.019531 C 156.882812 141.019531 156.089844 141.8125 156.089844 142.792969 Z M 156.089844 142.792969 " fill-opacity="1" fill-rule="evenodd"/><path fill="#ef8535" d="M 148.769531 132.863281 C 149.773438 132.863281 150.566406 132.070312 150.566406 131.089844 C 150.566406 130.089844 149.769531 129.300781 148.769531 129.300781 C 147.785156 129.300781 146.992188 130.089844 146.992188 131.089844 C 146.992188 132.070312 147.785156 132.863281 148.769531 132.863281 Z M 148.769531 132.863281 " fill-opacity="1" fill-rule="evenodd"/><g clip-path="url(#7ea93bdd84)"><path fill="#ef8535" d="M 154.226562 139.867188 C 155.070312 138.800781 156.398438 138.128906 157.867188 138.128906 C 160.457031 138.128906 162.546875 140.210938 162.546875 142.792969 C 162.546875 145.375 160.457031 147.472656 157.867188 147.472656 C 156.398438 147.472656 155.070312 146.785156 154.226562 145.734375 L 131.644531 145.734375 C 130.023438 145.734375 128.710938 147.042969 128.710938 148.660156 C 128.710938 150.261719 130.023438 151.585938 131.644531 151.585938 L 152.03125 151.585938 C 152.894531 150.519531 154.207031 149.847656 155.675781 149.847656 C 158.265625 149.847656 160.371094 151.929688 160.371094 154.511719 C 160.371094 157.09375 158.265625 159.175781 155.675781 159.175781 C 154.207031 159.175781 152.894531 158.503906 152.03125 157.453125 L 151.929688 157.4375 L 120.632812 157.4375 C 119.011719 157.4375 117.699219 158.761719 117.699219 160.378906 C 117.699219 161.980469 119.011719 163.304688 120.632812 163.304688 L 145.90625 163.304688 C 146.769531 162.238281 148.078125 161.566406 149.5625 161.566406 C 152.152344 161.566406 154.242188 163.648438 154.242188 166.230469 C 154.242188 168.8125 152.152344 170.894531 149.5625 170.894531 C 148.078125 170.894531 146.765625 170.222656 145.90625 169.15625 L 108.34375 169.15625 C 106.738281 169.15625 105.40625 170.480469 105.40625 172.082031 C 105.40625 173.699219 106.738281 175.023438 108.34375 175.023438 L 132.714844 175.023438 C 133.578125 173.957031 134.890625 173.269531 136.359375 173.269531 C 138.949219 173.269531 141.054688 175.367188 141.054688 177.949219 C 141.054688 179.085938 140.640625 180.117188 139.964844 180.925781 L 204.664062 180.722656 L 206.375 178.640625 L 206.324219 173.800781 C 207.617188 163.097656 206.027344 152.238281 201.714844 142.34375 L 222.378906 98.097656 L 259.542969 159.519531 C 257.074219 158.074219 254 158.195312 251.636719 159.8125 C 246.957031 165.78125 239.5 168.792969 229.28125 168.847656 L 227.296875 165.816406 L 216.9375 164.664062 L 225.914062 173.339844 C 241.019531 188.054688 254.8125 188.171875 267.328125 173.699219 C 267.292969 174.457031 267.101562 175.214844 266.777344 175.902344 C 268.207031 175.4375 269.605469 174.886719 270.96875 174.25 C 272.214844 174.113281 273.25 173.199219 273.542969 171.980469 C 273.816406 170.757812 273.300781 169.484375 272.230469 168.8125 L 272.558594 155.40625 C 273.75 154.734375 274.335938 153.359375 273.992188 152.035156 C 273.628906 150.707031 272.421875 149.8125 271.054688 149.832031 L 258.195312 127.628906 L 258.695312 127.335938 L 239.570312 91.335938 C 239.34375 91.0625 239.050781 90.855469 238.707031 90.785156 C 239.570312 89.875 239.914062 88.566406 239.585938 87.34375 C 239 86.171875 234.597656 82.492188 226.398438 76.261719 C 225.984375 74.933594 224.8125 73.988281 223.429688 73.867188 C 222.046875 73.730469 220.738281 74.453125 220.082031 75.675781 L 219.875 78.757812 L 208.601562 92.917969 L 208.101562 92.472656 L 193.980469 110.558594 L 193.445312 114.5 C 188.835938 117.03125 186.730469 119.765625 187.125 122.675781 C 182.898438 122.054688 164.789062 121.933594 154.554688 122.296875 L 129.230469 122.296875 C 127.625 122.296875 126.292969 123.621094 126.292969 125.222656 C 126.292969 126.839844 127.625 128.148438 129.230469 128.148438 L 145.128906 128.148438 C 145.992188 127.097656 147.300781 126.410156 148.769531 126.410156 C 151.359375 126.410156 153.464844 128.507812 153.464844 131.089844 C 153.464844 133.652344 151.359375 135.753906 148.769531 135.753906 C 147.300781 135.753906 145.992188 135.066406 145.128906 134.015625 L 110.101562 134.015625 C 108.480469 134.015625 107.167969 135.324219 107.167969 136.941406 C 107.167969 138.558594 108.480469 139.867188 110.101562 139.867188 Z M 177.320312 128.148438 L 177.339844 125.839844 C 178.582031 125.789062 179.773438 125.789062 180.859375 125.859375 C 185.382812 126.117188 188.59375 127.371094 190.492188 129.609375 C 196.585938 136.855469 200.730469 145.546875 202.523438 154.839844 C 195.480469 154.082031 187.039062 153.117188 177.21875 151.964844 Z M 177.511719 156.214844 C 189.457031 157.25 196.949219 158.109375 199.988281 158.8125 C 201.816406 159.382812 203.058594 161.085938 203.058594 162.996094 C 203.386719 167.109375 202.402344 169.15625 200.109375 169.105469 C 192.582031 167.214844 184.898438 165.128906 177.097656 162.875 C 176.960938 160.65625 177.097656 158.417969 177.511719 156.214844 Z M 234.738281 93.8125 C 234.648438 93.609375 234.71875 93.402344 234.890625 93.28125 C 235.0625 93.160156 235.289062 93.175781 235.445312 93.316406 L 255.242188 128.871094 L 256.246094 128.492188 L 267.414062 148.660156 C 265.34375 147.644531 263.132812 146.855469 260.871094 146.339844 Z M 270.917969 172.597656 C 270.105469 172.597656 269.449219 171.945312 269.449219 171.136719 C 269.449219 170.328125 270.105469 169.671875 270.917969 169.671875 C 271.730469 169.671875 272.382812 170.328125 272.382812 171.136719 C 272.386719 171.945312 271.730469 172.597656 270.917969 172.597656 Z M 266.03125 156.609375 L 263.289062 150.847656 C 267.035156 152.445312 268.933594 153.824219 269.019531 154.960938 L 269.019531 167.332031 C 268.949219 167.4375 268 166.214844 266.1875 163.667969 L 266.207031 159.761719 C 266.636719 158.726562 266.566406 157.574219 266.03125 156.609375 Z M 271.089844 154.410156 C 270.277344 154.410156 269.625 153.738281 269.625 152.929688 C 269.625 152.121094 270.28125 151.464844 271.089844 151.464844 C 271.902344 151.464844 272.574219 152.121094 272.574219 152.929688 C 272.574219 153.738281 271.902344 154.410156 271.089844 154.410156 Z M 211.121094 95.035156 L 210.257812 94.175781 L 219.753906 81.941406 L 219.753906 87.671875 L 216.367188 88.652344 Z M 224.308594 76.933594 C 224.308594 77.65625 223.722656 78.242188 223 78.242188 C 222.273438 78.242188 221.6875 77.65625 221.6875 76.933594 C 221.6875 76.210938 222.273438 75.625 223 75.625 C 223.722656 75.625 224.308594 76.210938 224.308594 76.933594 Z M 261.71875 158.453125 C 261.71875 157.644531 262.375 156.988281 263.183594 156.988281 C 263.996094 156.988281 264.667969 157.644531 264.667969 158.453125 C 264.667969 159.277344 263.996094 159.933594 263.183594 159.933594 C 262.371094 159.933594 261.71875 159.277344 261.71875 158.453125 Z M 223.066406 89.238281 C 222.34375 89.238281 221.753906 88.652344 221.753906 87.929688 C 221.753906 87.207031 222.34375 86.621094 223.066406 86.621094 C 223.792969 86.621094 224.378906 87.207031 224.378906 87.929688 C 224.378906 88.652344 223.792969 89.238281 223.066406 89.238281 Z M 235.925781 90.0625 C 235.203125 90.0625 234.617188 89.476562 234.617188 88.753906 C 234.617188 88.03125 235.203125 87.445312 235.925781 87.445312 C 236.652344 87.445312 237.238281 88.03125 237.238281 88.753906 C 237.238281 89.476562 236.652344 90.0625 235.925781 90.0625 Z M 255.65625 147.128906 C 255.65625 146.320312 256.332031 145.667969 257.140625 145.667969 C 257.953125 145.667969 258.609375 146.320312 258.609375 147.128906 C 258.609375 147.953125 257.953125 148.609375 257.140625 148.609375 C 256.332031 148.609375 255.65625 147.953125 255.65625 147.128906 Z M 255.65625 147.128906 " fill-opacity="1" fill-rule="evenodd"/></g><g clip-path="url(#6da9e7b49b)"><path fill="#343532" d="M 202.300781 184.335938 L 121.804688 184.335938 C 120.183594 184.335938 118.871094 185.660156 118.871094 187.277344 C 118.871094 188.878906 120.183594 190.203125 121.804688 190.203125 L 143.589844 190.203125 C 144.402344 189.308594 145.558594 188.742188 146.871094 188.742188 C 147.925781 188.742188 148.90625 189.121094 149.667969 189.757812 C 150.652344 190.546875 151.273438 191.769531 151.273438 193.128906 C 151.273438 194.25 150.839844 195.28125 150.132812 196.054688 C 149.339844 196.949219 148.167969 197.519531 146.871094 197.519531 C 145.558594 197.519531 144.402344 196.949219 143.589844 196.054688 L 103.59375 196.054688 C 101.988281 196.054688 100.660156 197.378906 100.660156 198.980469 C 100.660156 200.597656 101.988281 201.925781 103.59375 201.925781 L 147.835938 201.925781 C 148.648438 201.027344 149.804688 200.460938 151.117188 200.460938 C 152.1875 200.460938 153.152344 200.839844 153.914062 201.476562 C 154.777344 202.164062 155.347656 203.199219 155.484375 204.351562 L 202.300781 204.351562 C 207.339844 204.351562 211.535156 200.597656 212.226562 195.746094 L 216.109375 195.746094 L 216.109375 204.351562 L 235.167969 204.351562 L 235.167969 203.542969 C 223.171875 199.496094 221.183594 192.492188 221.183594 181.652344 L 216.109375 181.652344 L 216.109375 192.511719 L 212.15625 192.511719 C 211.292969 187.878906 207.1875 184.335938 202.300781 184.335938 Z M 202.300781 184.335938 " fill-opacity="1" fill-rule="evenodd"/></g><path fill="#ef8535" d="M 146.871094 194.902344 C 147.855469 194.902344 148.648438 194.109375 148.648438 193.128906 C 148.648438 192.148438 147.855469 191.355469 146.871094 191.355469 C 145.886719 191.355469 145.078125 192.148438 145.078125 193.128906 C 145.078125 194.109375 145.886719 194.902344 146.871094 194.902344 Z M 146.871094 194.902344 " fill-opacity="1" fill-rule="evenodd"/><g clip-path="url(#136e196a62)"><path fill="#ef8535" d="M 152.828125 204.351562 C 152.601562 203.609375 151.929688 203.058594 151.117188 203.058594 C 150.304688 203.058594 149.617188 203.609375 149.390625 204.351562 Z M 152.828125 204.351562 " fill-opacity="1" fill-rule="evenodd"/></g></svg>